<svg width="55" height="55" viewBox="0 0 55 55" fill="none" xmlns="http://www.w3.org/2000/svg">
<path d="M38.9579 4.58292C41.9943 4.59199 44.9037 5.8022 47.0508 7.94925C49.1978 10.0963 50.408 13.0057 50.4171 16.0421V38.9579C50.408 41.9943 49.1978 44.9037 47.0508 47.0508C44.9037 49.1978 41.9943 50.408 38.9579 50.4171H16.0421C13.0057 50.408 10.0963 49.1978 7.94925 47.0508C5.8022 44.9037 4.59199 41.9943 4.58292 38.9579V16.0421C4.59199 13.0057 5.8022 10.0963 7.94925 7.94925C10.0963 5.8022 13.0057 4.59199 16.0421 4.58292H38.9579ZM38.9579 0H16.0421C7.21875 0 0 7.21875 0 16.0421V38.9579C0 47.7812 7.21875 55 16.0421 55H38.9579C47.7812 55 55 47.7812 55 38.9579V16.0421C55 7.21875 47.7812 0 38.9579 0Z" fill="#F9F9F9"/>
<path d="M42.3954 16.042C41.7156 16.042 41.051 15.8404 40.4857 15.4627C39.9204 15.085 39.4798 14.5481 39.2196 13.92C38.9594 13.2918 38.8913 12.6007 39.024 11.9339C39.1566 11.2671 39.484 10.6546 39.9647 10.1738C40.4455 9.69307 41.058 9.36568 41.7248 9.23304C42.3916 9.10041 43.0828 9.16848 43.7109 9.42866C44.339 9.68883 44.8759 10.1294 45.2536 10.6947C45.6313 11.26 45.8329 11.9246 45.8329 12.6045C45.8339 13.0562 45.7456 13.5036 45.5732 13.9211C45.4008 14.3386 45.1477 14.7179 44.8283 15.0373C44.5089 15.3567 44.1295 15.6099 43.712 15.7823C43.2946 15.9547 42.8471 16.043 42.3954 16.042ZM27.5 18.3328C29.3131 18.3328 31.0854 18.8705 32.593 19.8778C34.1005 20.8851 35.2754 22.3168 35.9693 23.9918C36.6631 25.6669 36.8447 27.5101 36.4909 29.2883C36.1372 31.0666 35.2641 32.7 33.9821 33.982C32.7001 35.2641 31.0667 36.1371 29.2884 36.4909C27.5102 36.8446 25.667 36.663 23.9919 35.9692C22.3169 35.2754 20.8852 34.1004 19.8779 32.5929C18.8706 31.0854 18.3329 29.313 18.3329 27.4999C18.3355 25.0695 19.3022 22.7393 21.0208 21.0207C22.7394 19.3021 25.0695 18.3354 27.5 18.3328ZM27.5 13.7499C24.7805 13.7499 22.1221 14.5563 19.8609 16.0672C17.5997 17.5781 15.8374 19.7255 14.7967 22.238C13.756 24.7505 13.4837 27.5152 14.0142 30.1824C14.5448 32.8497 15.8543 35.2997 17.7773 37.2226C19.7003 39.1456 22.1503 40.4552 24.8175 40.9857C27.4848 41.5163 30.2494 41.244 32.7619 40.2033C35.2744 39.1626 37.4218 37.4002 38.9327 35.139C40.4436 32.8778 41.25 30.2194 41.25 27.4999C41.25 23.8532 39.8013 20.3558 37.2227 17.7772C34.6441 15.1986 31.1467 13.7499 27.5 13.7499Z" fill="#F4F4F4"/>
</svg>
