<svg width="55" height="55" viewBox="0 0 55 55" fill="none" xmlns="http://www.w3.org/2000/svg">
<path d="M12.3112 55H0.908482V18.2793H12.3112V55ZM6.60368 13.2703C2.95748 13.2703 0 10.2501 0 6.60383C2.6098e-08 4.85239 0.695743 3.17268 1.93417 1.93422C3.1726 0.695759 4.85228 0 6.60368 0C8.35509 0 10.0348 0.695759 11.2732 1.93422C12.5116 3.17268 13.2074 4.85239 13.2074 6.60383C13.2074 10.2501 10.2487 13.2703 6.60368 13.2703ZM54.9877 55H43.6096V37.1246C43.6096 32.8645 43.5237 27.4012 37.6811 27.4012C31.7527 27.4012 30.8442 32.0296 30.8442 36.8177V55H19.4538V18.2793H30.39V23.2884H30.5496C32.0719 20.4032 35.7905 17.3585 41.3384 17.3585C52.8786 17.3585 55 24.958 55 34.8288V55H54.9877Z" fill="#F4F4F4"/>
</svg>
