<svg width="55" height="55" viewBox="0 0 55 55" fill="none" xmlns="http://www.w3.org/2000/svg">
<path d="M27.5 41.25C27.5 42.7688 28.7312 44 30.25 44H41.25C42.7688 44 44 42.7688 44 41.25V30.25C44 28.7312 42.7688 27.5 41.25 27.5H38.5V38.5H27.5V41.25Z" fill="#F4F4F4"/>
<path d="M24.75 11C26.2688 11 27.5 12.2312 27.5 13.75V16.5H16.5V27.5H13.75C12.2312 27.5 11 26.2688 11 24.75V13.75C11 12.2312 12.2312 11 13.75 11H24.75Z" fill="#F4F4F4"/>
<path fill-rule="evenodd" clip-rule="evenodd" d="M8.25 0C3.69366 0 0 3.69366 0 8.25V46.75C0 51.3065 3.69366 55 8.25 55H46.75C51.3065 55 55 51.3065 55 46.75V8.25C55 3.69366 51.3065 0 46.75 0H8.25ZM46.75 5.5H8.25C6.7312 5.5 5.5 6.73123 5.5 8.25V46.75C5.5 48.2688 6.73123 49.5 8.25 49.5H46.75C48.2688 49.5 49.5 48.2688 49.5 46.75V8.25C49.5 6.7312 48.2688 5.5 46.75 5.5Z" fill="#F4F4F4"/>
</svg>
