<svg width="1440" height="810" viewBox="0 0 1440 810" fill="none" xmlns="http://www.w3.org/2000/svg">
<g clip-path="url(#clip0_266_5409)">
<path d="M1477.62 332.49C1391.37 321.99 1345.67 336.99 1319.67 353.49C1279.55 378.908 1285.22 408.555 1238.23 429.78C1188.85 452.078 1154.23 432.15 1127.17 454.53C1093.37 482.543 1132.26 526.163 1102.42 545.798C1101.62 546.321 1100.79 546.797 1099.94 547.223C1071.51 561.105 1006.94 493.688 967.19 447.803C944.9 488.078 901.497 511.095 857.982 506.033C802.272 499.553 775.842 450.465 773.69 446.303L675.537 517.485C652.662 532.17 628.722 548.67 604.287 567.12C578.367 586.71 555.29 605.94 534.845 624.278L485.015 670.335L436.13 860.768L650.855 891.315L1008.71 977.138L1285.12 982.86L1502.31 946.62C1540.14 856.35 1577.98 766.08 1615.83 675.81C1603.49 596.345 1591.15 516.883 1578.81 437.423L1477.62 332.49Z" fill="url(#paint0_linear_266_5409)"/>
<path opacity="0.14" d="M1436.65 387.314C1408.9 373.192 1362.78 378.164 1346.65 406.312C1331.85 432.149 1343.61 475.214 1381.65 502.312C1379.21 518.699 1373.61 530.617 1367.65 539.317C1335.55 586.169 1253.15 597.734 1161.65 570.314C1179.79 593.639 1214.15 628.979 1264.65 638.317C1289.66 642.937 1309.6 639.509 1345.65 633.314C1402.09 623.617 1430.31 618.764 1450.65 600.314C1505.5 550.544 1495.69 417.314 1436.65 387.314Z" fill="url(#paint1_linear_266_5409)"/>
<path d="M1474.83 720.556C1475.4 722.371 1474.67 723.556 1475.26 725.326C1474.47 724.523 1475.07 724.231 1474.32 723.323C1473.69 726.263 1471.92 728.153 1471.05 731.018C1466.88 731.678 1458.62 729.046 1459.12 738.781C1458.51 735.661 1457.1 731.753 1456.58 728.573C1455.69 731.963 1455.3 737.003 1452.73 739.598C1452.48 733.066 1449.93 724.598 1447.54 734.941C1449.48 720.691 1436.57 732.428 1437.49 721.013C1437.36 722.063 1439.48 722.431 1440.03 723.263C1435.95 717.766 1431.03 710.363 1427.78 701.266C1431.39 710.011 1435.89 718.696 1441.96 724.651C1438.55 718.531 1433.94 711.586 1430.76 702.743C1435.56 711.413 1439.47 723.361 1448.31 724.493C1443.3 720.841 1437.46 714.188 1433.31 705.316C1434.48 707.363 1437.06 708.653 1438.29 710.303C1436.37 706.782 1434.68 703.136 1433.25 699.391C1437.48 708.233 1440.36 715.838 1447.66 720.256C1443.23 716.866 1438.59 710.851 1434.91 703.193C1437.24 707.404 1440.15 711.265 1443.56 714.661C1440.9 711.42 1438.57 707.923 1436.6 704.221C1438.31 705.085 1439.93 706.134 1441.41 707.348C1439.9 704.809 1438.53 702.187 1437.31 699.496C1439.18 702.751 1440.39 706.748 1442.4 708.938C1440.85 706.675 1439.42 704.324 1438.14 701.896C1439.11 703.223 1441.53 703.958 1442.52 705.008C1440.72 702.173 1439.13 699.21 1437.76 696.143C1440.58 700.801 1443.96 706.186 1447.91 709.118C1444.78 706.175 1442.1 702.774 1439.99 699.031C1441.3 699.031 1443.36 701.071 1444.39 701.663C1444.23 699.706 1442.57 697.261 1441.82 695.363C1443.82 698.221 1445.31 701.776 1447.45 703.373C1446.17 701.941 1445.47 698.918 1444.27 697.036C1446.76 699.743 1449.68 702.166 1453.01 702.976C1449.33 700.996 1444.35 697.583 1441.19 692.108C1444.05 696.136 1448.28 699.841 1452.58 701.258C1449.2 699.346 1444.86 695.311 1441.93 690.331C1444.39 692.371 1448.04 695.281 1450.46 696.526C1448.21 692.513 1444.16 689.258 1441.38 683.858C1444.6 688.321 1450.51 694.463 1454.88 695.161C1452.63 692.161 1448.27 689.543 1446.11 685.928C1448.61 688.555 1451.89 690.293 1455.47 690.878C1450.21 689.13 1445.82 685.441 1443.19 680.566C1445.99 684.076 1450.84 688.418 1455.39 688.066C1450.84 685.471 1447.08 681.699 1444.5 677.146C1446.99 680.859 1450.65 683.63 1454.9 685.013C1451.5 683.408 1447.56 678.728 1445.9 674.723C1449.05 679.051 1451.94 683.476 1456.69 683.168C1454.31 682.583 1452.03 679.583 1449.87 677.033C1460.22 683.161 1451.86 677.483 1449.65 672.218C1450.8 673.351 1450.83 673.718 1452.01 674.288C1451.26 673.463 1450.66 673.846 1449.96 672.788C1451.22 674.003 1452.83 674.802 1454.55 675.076C1452.12 673.898 1450.8 671.108 1449.64 668.326C1451.53 670.201 1452.28 672.001 1454.44 670.891C1453.19 670.141 1453.37 669.166 1452.24 667.778C1453.06 668.326 1452.45 669.076 1453.29 669.278C1452.27 667.778 1452.84 665.933 1452.03 664.028C1452.86 665.386 1452.3 666.278 1453.24 667.231C1452.64 666.047 1452.13 664.812 1451.74 663.541C1453.71 665.446 1454.94 667.081 1457.14 667.981C1455.57 665.948 1455.78 664.231 1454.95 661.771C1456.36 663.218 1456.5 664.996 1458.34 663.976C1456.98 662.963 1457.2 661.388 1456.14 659.558C1456.71 660.001 1455.87 660.766 1456.47 660.998C1455.8 659.985 1455.24 658.895 1454.82 657.751C1456.05 659.341 1457.51 659.386 1456.47 656.663C1458.36 657.382 1460.43 657.521 1462.41 657.061C1460.75 656.731 1457.82 655.928 1456.56 654.151C1457.22 654.571 1459.34 654.413 1460.05 654.503C1459.23 653.716 1457.14 652.358 1456.48 651.173C1458.24 650.926 1458.54 649.111 1459.31 647.498C1459.65 649.748 1457.25 653.956 1459.91 653.986C1458.02 656.393 1459.95 656.086 1461.14 654.736C1460.16 656.348 1459.71 656.408 1458.57 657.256C1461.35 656.506 1460.82 659.048 1459.08 660.841C1461.1 660.413 1463.58 659.341 1464.93 657.541C1459.77 663.541 1459.29 669.976 1466.31 662.041C1465.49 665.933 1462.12 669.616 1459.74 671.041C1460.62 670.921 1460.28 669.863 1461.15 669.391C1460.07 670.636 1460.4 671.588 1459.22 672.263C1460.72 672.826 1460.85 671.768 1462.22 670.898C1454.07 678.196 1464.08 673.658 1467.06 666.923C1466.31 671.048 1463.98 675.683 1460.89 678.173C1463.14 676.913 1466.7 675.098 1468.74 671.843C1466.69 675.803 1462.89 678.721 1460.49 680.536C1462.93 679.291 1465.83 676.208 1467.99 672.698C1466.45 675.712 1464.42 678.453 1461.99 680.813C1462.95 680.348 1465.26 680.138 1466.2 679.313C1465.19 680.865 1464.06 682.342 1462.83 683.731C1465.38 682.073 1468.32 678.571 1470.59 674.543C1468.3 679.313 1464.23 682.951 1461.48 685.156C1464.32 683.461 1467.48 679.538 1470.01 674.993C1468.31 679.178 1466.15 683.993 1462.99 686.993C1464.54 686.011 1467.42 685.088 1468.9 683.243C1467.33 685.721 1465.47 688.009 1463.37 690.061C1466.38 687.929 1468.94 685.24 1470.93 682.141C1468.27 687.713 1463.34 690.121 1460.55 693.601C1464.66 693.308 1467.17 688.636 1470.21 684.488C1469.57 685.921 1469.46 688.516 1468.77 689.783C1470.6 688.508 1472.43 685.966 1473.73 683.971C1472.46 687.391 1469.13 690.316 1468.23 693.421C1470.17 691.223 1473.28 688.013 1475.05 684.586C1472.67 690.788 1467.29 698.086 1462.53 701.423C1468.13 698.828 1470.88 693.293 1474.33 687.023C1472.71 691.253 1470.23 694.568 1468.79 698.273C1470.03 697.013 1472.68 695.888 1473.87 694.171C1471.59 698.221 1468.68 701.884 1465.24 705.023C1468.71 702.773 1471.24 698.213 1473.72 694.441C1473.31 695.521 1474.1 697.441 1473.67 698.483C1484.31 683.131 1471.06 707.813 1466.86 710.206C1469.59 708.136 1471.36 704.168 1473.9 700.201C1470.97 705.533 1468.37 709.043 1465.01 711.721C1470.65 708.281 1475.2 703.314 1478.13 697.396C1476.07 703.057 1472.98 708.285 1469.01 712.816C1470.51 711.653 1470.66 709.951 1472.1 708.233C1471.21 712.126 1467.85 714.233 1465.65 716.483C1470.27 713.731 1474.21 710.761 1477.31 705.758C1475.76 710.174 1473.33 714.228 1470.17 717.676C1473.72 714.391 1475.91 710.176 1479.05 703.988C1475.85 711.023 1473.8 716.738 1470.05 720.638C1473.64 717.496 1475.64 712.568 1478.85 706.508C1475.32 713.911 1472.73 720.128 1468.59 723.871C1472.19 721.063 1475.27 717.628 1477.65 713.731C1475.75 717.211 1472.8 719.071 1470.72 721.598C1474.27 718.103 1477.47 713.438 1480.6 707.131C1466.07 731.678 1475.3 722.131 1484.35 701.551C1482.01 708.616 1480.5 716.378 1474.83 720.556Z" fill="url(#paint2_linear_266_5409)"/>
</g>
<defs>
<linearGradient id="paint0_linear_266_5409" x1="1634.41" y1="195.158" x2="840.41" y2="955.155" gradientUnits="userSpaceOnUse">
<stop offset="0.05" stop-color="#000428"/>
<stop offset="0.22" stop-color="#00072C"/>
<stop offset="0.41" stop-color="#001039"/>
<stop offset="0.61" stop-color="#001F4F"/>
<stop offset="0.81" stop-color="#00346D"/>
<stop offset="1" stop-color="#004E92"/>
</linearGradient>
<linearGradient id="paint1_linear_266_5409" x1="1161.65" y1="510.067" x2="1486.83" y2="510.067" gradientUnits="userSpaceOnUse">
<stop offset="0.05" stop-color="#000428"/>
<stop offset="0.22" stop-color="#00072C"/>
<stop offset="0.41" stop-color="#001039"/>
<stop offset="0.61" stop-color="#001F4F"/>
<stop offset="0.81" stop-color="#00346D"/>
<stop offset="1" stop-color="#004E92"/>
</linearGradient>
<linearGradient id="paint2_linear_266_5409" x1="1399.91" y1="470.348" x2="1556.26" y2="1113.71" gradientUnits="userSpaceOnUse">
<stop offset="0.05" stop-color="#000428"/>
<stop offset="0.22" stop-color="#00072C"/>
<stop offset="0.41" stop-color="#001039"/>
<stop offset="0.61" stop-color="#001F4F"/>
<stop offset="0.81" stop-color="#00346D"/>
<stop offset="1" stop-color="#004E92"/>
</linearGradient>
<clipPath id="clip0_266_5409">
<rect width="1440" height="810" fill="white"/>
</clipPath>
</defs>
</svg>
