<svg width="1440" height="810" viewBox="0 0 1440 810" fill="none" xmlns="http://www.w3.org/2000/svg">
<g clip-path="url(#clip0_266_1672)">
<path d="M-47.2501 315.075C-36.6301 316.35 -21.5101 317.812 -3.33014 318.322C37.5223 319.462 69.7949 315.135 94.7474 311.07C210.247 292.26 208.395 272.753 250.747 279.075C308.677 287.708 308.25 323.61 360.75 325.072C409.192 326.422 417.232 296.115 486.75 287.07C526.14 281.948 525.652 291.405 580.747 289.072C653.737 285.982 660.645 269.13 712.747 269.07C773.617 269.01 772.545 291.997 852.75 303.075C879.967 306.825 935.325 314.475 1000.75 299.07C1064.59 284.07 1074.39 262.05 1114.75 267.075C1164.78 273.293 1166.32 309.15 1214.75 319.072C1274.5 331.312 1290.94 280.59 1372.75 275.07C1405.84 272.82 1404.52 281.07 1520.75 307.072C1632.58 332.107 1632.94 324.322 1656.75 337.072C1740.91 382.155 1763.3 493.897 1772.75 541.072C1797.19 663.082 1763.24 762.878 1744.75 815.07C1675.3 1011.17 1531.18 1123.81 1478.75 1161.07C1441.48 1187.56 1327.25 1263.55 946.747 1313.07C704.227 1344.63 680.55 1322.88 196.747 1337.07C-173.888 1347.94 -255.75 1363.5 -363.248 1293.07C-493.028 1208.01 -573.165 1054.5 -581.25 905.07C-595.673 638.475 -378 436.32 -199.253 365.07C-168.212 352.717 -136.067 343.342 -103.253 337.072L-47.2501 315.075Z" fill="url(#paint0_linear_266_1672)"/>
<path opacity="0.01" d="M33.7498 335.753C37.1998 325.59 62.1973 335.505 118.747 321.75C173.497 308.43 180.045 291.84 215.752 293.753C235.252 294.795 253.102 301.778 288.75 315.75C327.75 331.035 329.917 337.163 348.75 339.75C376.567 343.575 391.042 332.835 428.752 320.753C472.41 306.758 539.07 293.55 544.747 305.753C550.747 318.578 491.4 364.133 429.75 393.75C387.36 414.113 309.75 451.403 212.752 436.748C111.697 421.5 27.0448 355.5 33.7498 335.753Z" fill="url(#paint1_linear_266_1672)"/>
<path opacity="0.01" d="M617.415 318.113C620.737 292.403 684 271.703 730.747 276.75C768.247 280.8 799.747 296.753 799.747 296.753C816.862 305.408 835.552 318.27 866.415 322.613C871.276 323.325 876.174 323.758 881.085 323.91C899.085 324.593 917.085 321.66 971.415 316.613C1020.91 311.985 1043.11 325.613 1064.41 309.113C1080.84 296.4 1078.8 283.065 1092.91 279.113C1111.29 273.96 1122.67 294.315 1164.91 315.113C1186.36 325.665 1203.22 333.96 1224.91 334.613C1268.89 335.925 1296.34 304.725 1302.91 312.113C1308.16 317.985 1293.97 341.363 1277.41 357.113C1264.23 378.54 1238.58 382.148 1230.91 384.113C1181.36 396.795 1102.66 372.683 1025.75 405.75C1016 409.928 1013 412.148 1005.75 415.748C873.862 481.163 610.32 373.103 617.415 318.113Z" fill="url(#paint2_linear_266_1672)"/>
</g>
<defs>
<linearGradient id="paint0_linear_266_1672" x1="590.377" y1="1579.16" x2="608.377" y2="-18.8325" gradientUnits="userSpaceOnUse">
<stop offset="0.05" stop-color="#FEAC1F"/>
<stop offset="0.18" stop-color="#FAA81E"/>
<stop offset="0.33" stop-color="#EE9A1C"/>
<stop offset="0.48" stop-color="#D98518"/>
<stop offset="0.64" stop-color="#BD6612"/>
<stop offset="0.8" stop-color="#983F0B"/>
<stop offset="0.96" stop-color="#6C1003"/>
<stop offset="1" stop-color="#5F0200"/>
</linearGradient>
<linearGradient id="paint1_linear_266_1672" x1="287.61" y1="470.37" x2="290.01" y2="257.19" gradientUnits="userSpaceOnUse">
<stop stop-color="#FFEBDE"/>
<stop offset="0.34" stop-color="#FFEEE2"/>
<stop offset="0.71" stop-color="#FFF6EF"/>
<stop offset="1" stop-color="white"/>
</linearGradient>
<linearGradient id="paint2_linear_266_1672" x1="936.045" y1="217.448" x2="990.757" y2="442.553" gradientUnits="userSpaceOnUse">
<stop stop-color="#FFEBDE"/>
<stop offset="0.34" stop-color="#FFEEE2"/>
<stop offset="0.71" stop-color="#FFF6EF"/>
<stop offset="1" stop-color="white"/>
</linearGradient>
<clipPath id="clip0_266_1672">
<rect width="1440" height="810" fill="white"/>
</clipPath>
</defs>
</svg>
