<svg width="1440" height="810" viewBox="0 0 1440 810" fill="none" xmlns="http://www.w3.org/2000/svg">
<g clip-path="url(#clip0_266_7123)">
<path d="M-47.2501 315.074C-36.6301 316.349 -21.5101 317.812 -3.33014 318.322C37.5223 319.462 69.7949 315.134 94.7474 311.069C210.247 292.259 208.395 272.752 250.747 279.074C308.677 287.707 308.25 323.609 360.75 325.072C409.192 326.422 417.232 296.114 486.75 287.069C526.14 281.947 525.652 291.404 580.747 289.072C653.737 285.982 660.645 269.129 712.747 269.069C773.617 269.009 772.545 291.997 852.75 303.074C879.967 306.824 935.325 314.474 1000.75 299.069C1064.59 284.069 1074.39 262.049 1114.75 267.074C1164.78 273.292 1166.32 309.149 1214.75 319.072C1274.5 331.312 1290.94 280.589 1372.75 275.069C1405.84 272.819 1404.52 281.069 1520.75 307.072C1632.58 332.107 1632.94 324.322 1656.75 337.072C1740.91 382.154 1763.3 493.897 1772.75 541.072C1797.19 663.082 1763.24 762.877 1744.75 815.069C1675.3 1011.16 1531.18 1123.81 1478.75 1161.07C1441.48 1187.56 1327.25 1263.55 946.747 1313.07C704.227 1344.63 680.55 1322.88 196.747 1337.07C-173.888 1347.94 -255.75 1363.5 -363.248 1293.07C-493.028 1208.01 -573.165 1054.5 -581.25 905.069C-595.673 638.474 -378 436.319 -199.253 365.069C-168.212 352.716 -136.067 343.341 -103.253 337.072L-47.2501 315.074Z" fill="url(#paint0_linear_266_7123)"/>
<path opacity="0.01" d="M33.7498 335.751C37.1998 325.589 62.1973 335.504 118.747 321.749C173.497 308.429 180.045 291.839 215.752 293.751C235.252 294.794 253.102 301.776 288.75 315.749C327.75 331.034 329.917 337.161 348.75 339.749C376.567 343.574 391.042 332.834 428.752 320.751C472.41 306.756 539.07 293.549 544.747 305.751C550.747 318.576 491.4 364.131 429.75 393.749C387.36 414.111 309.75 451.401 212.752 436.746C111.697 421.499 27.0448 355.499 33.7498 335.751Z" fill="url(#paint1_linear_266_7123)"/>
<path opacity="0.01" d="M617.415 318.112C620.737 292.402 684 271.702 730.747 276.749C768.247 280.799 799.747 296.752 799.747 296.752C816.862 305.407 835.552 318.269 866.415 322.612C871.276 323.324 876.174 323.757 881.085 323.909C899.085 324.592 917.085 321.659 971.415 316.612C1020.91 311.984 1043.11 325.612 1064.41 309.112C1080.84 296.399 1078.8 283.064 1092.91 279.112C1111.29 273.959 1122.67 294.314 1164.91 315.112C1186.36 325.664 1203.22 333.959 1224.91 334.612C1268.89 335.924 1296.34 304.724 1302.91 312.112C1308.16 317.984 1293.97 341.362 1277.41 357.112C1264.23 378.539 1238.58 382.147 1230.91 384.112C1181.36 396.794 1102.66 372.682 1025.75 405.749C1016 409.927 1013 412.147 1005.75 415.747C873.862 481.162 610.32 373.102 617.415 318.112Z" fill="url(#paint2_linear_266_7123)"/>
<path d="M1474.93 720.989C1475.5 722.804 1474.77 723.989 1475.36 725.759C1474.57 724.957 1475.17 724.664 1474.42 723.757C1473.79 726.697 1472.02 728.587 1471.15 731.452C1466.98 732.112 1458.72 729.479 1459.22 739.214C1458.61 736.094 1457.2 732.187 1456.68 729.007C1455.79 732.397 1455.4 737.437 1452.83 740.032C1452.58 733.499 1450.03 725.032 1447.64 735.374C1449.58 721.124 1436.67 732.862 1437.59 721.447C1437.46 722.497 1439.58 722.864 1440.13 723.697C1436.05 718.199 1431.13 710.797 1427.88 701.699C1431.49 710.444 1435.99 719.129 1442.06 725.084C1438.65 718.964 1434.04 712.019 1430.86 703.177C1435.66 711.847 1439.57 723.794 1448.41 724.927C1443.4 721.274 1437.56 714.622 1433.41 705.749C1434.58 707.797 1437.16 709.087 1438.39 710.737C1436.47 707.215 1434.78 703.57 1433.35 699.824C1437.58 708.667 1440.46 716.272 1447.76 720.689C1443.33 717.299 1438.69 711.284 1435.01 703.627C1437.34 707.838 1440.25 711.699 1443.66 715.094C1441 711.854 1438.67 708.356 1436.7 704.654C1438.41 705.519 1440.03 706.568 1441.51 707.782C1440 705.242 1438.63 702.621 1437.41 699.929C1439.28 703.184 1440.49 707.182 1442.5 709.372C1440.95 707.109 1439.52 704.757 1438.24 702.329C1439.21 703.657 1441.63 704.392 1442.62 705.442C1440.82 702.607 1439.23 699.644 1437.86 696.577C1440.68 701.234 1444.06 706.619 1448.01 709.552C1444.88 706.609 1442.2 703.208 1440.09 699.464C1441.4 699.464 1443.46 701.504 1444.49 702.097C1444.33 700.139 1442.67 697.694 1441.92 695.797C1443.92 698.654 1445.41 702.209 1447.55 703.807C1446.27 702.374 1445.57 699.352 1444.37 697.469C1446.86 700.177 1449.78 702.599 1453.11 703.409C1449.43 701.429 1444.45 698.017 1441.29 692.542C1444.15 696.569 1448.38 700.274 1452.68 701.692C1449.3 699.779 1444.96 695.744 1442.03 690.764C1444.49 692.804 1448.14 695.714 1450.56 696.959C1448.31 692.947 1444.26 689.692 1441.48 684.292C1444.7 688.754 1450.61 694.897 1454.98 695.594C1452.73 692.594 1448.37 689.977 1446.21 686.362C1448.71 688.988 1451.99 690.727 1455.57 691.312C1450.31 689.563 1445.92 685.875 1443.29 680.999C1446.09 684.509 1450.94 688.852 1455.49 688.499C1450.94 685.905 1447.18 682.132 1444.6 677.579C1447.09 681.293 1450.75 684.064 1455 685.447C1451.6 683.842 1447.66 679.162 1446 675.157C1449.15 679.484 1452.04 683.909 1456.79 683.602C1454.41 683.017 1452.13 680.017 1449.97 677.467C1460.32 683.594 1451.96 677.917 1449.75 672.652C1450.9 673.784 1450.93 674.152 1452.11 674.722C1451.36 673.897 1450.76 674.279 1450.06 673.222C1451.32 674.437 1452.93 675.235 1454.65 675.509C1452.22 674.332 1450.9 671.542 1449.74 668.759C1451.63 670.634 1452.38 672.434 1454.54 671.324C1453.29 670.574 1453.47 669.599 1452.34 668.212C1453.16 668.759 1452.55 669.509 1453.39 669.712C1452.37 668.212 1452.94 666.367 1452.13 664.462C1452.96 665.819 1452.4 666.712 1453.34 667.664C1452.74 666.48 1452.23 665.246 1451.84 663.974C1453.81 665.879 1455.04 667.514 1457.24 668.414C1455.67 666.382 1455.88 664.664 1455.05 662.204C1456.46 663.652 1456.6 665.429 1458.44 664.409C1457.08 663.397 1457.3 661.822 1456.24 659.992C1456.81 660.434 1455.97 661.199 1456.57 661.432C1455.9 660.418 1455.34 659.328 1454.92 658.184C1456.15 659.774 1457.61 659.819 1456.57 657.097C1458.46 657.816 1460.53 657.954 1462.51 657.494C1460.85 657.164 1457.92 656.362 1456.66 654.584C1457.32 655.004 1459.44 654.847 1460.15 654.937C1459.33 654.149 1457.24 652.792 1456.58 651.607C1458.34 651.359 1458.64 649.544 1459.41 647.932C1459.75 650.182 1457.35 654.389 1460.01 654.419C1458.12 656.827 1460.05 656.519 1461.24 655.169C1460.26 656.782 1459.81 656.842 1458.67 657.689C1461.45 656.939 1460.92 659.482 1459.18 661.274C1461.2 660.847 1463.68 659.774 1465.03 657.974C1459.87 663.974 1459.39 670.409 1466.41 662.474C1465.59 666.367 1462.22 670.049 1459.84 671.474C1460.72 671.354 1460.38 670.297 1461.25 669.824C1460.17 671.069 1460.5 672.022 1459.32 672.697C1460.82 673.259 1460.95 672.202 1462.32 671.332C1454.17 678.629 1464.18 674.092 1467.16 667.357C1466.41 671.482 1464.08 676.117 1460.99 678.607C1463.24 677.347 1466.8 675.532 1468.84 672.277C1466.79 676.237 1462.99 679.154 1460.59 680.969C1463.03 679.724 1465.93 676.642 1468.09 673.132C1466.55 676.145 1464.52 678.887 1462.09 681.247C1463.05 680.782 1465.36 680.572 1466.3 679.747C1465.29 681.299 1464.16 682.775 1462.93 684.164C1465.48 682.507 1468.42 679.004 1470.69 674.977C1468.4 679.747 1464.33 683.384 1461.58 685.589C1464.42 683.894 1467.58 679.972 1470.11 675.427C1468.41 679.612 1466.25 684.427 1463.09 687.427C1464.64 686.444 1467.52 685.522 1469 683.677C1467.43 686.155 1465.57 688.442 1463.47 690.494C1466.48 688.363 1469.04 685.674 1471.03 682.574C1468.37 688.147 1463.44 690.554 1460.65 694.034C1464.76 693.742 1467.27 689.069 1470.31 684.922C1469.67 686.354 1469.56 688.949 1468.87 690.217C1470.7 688.942 1472.53 686.399 1473.83 684.404C1472.56 687.824 1469.23 690.749 1468.33 693.854C1470.27 691.657 1473.38 688.447 1475.15 685.019C1472.77 691.222 1467.39 698.519 1462.63 701.857C1468.23 699.262 1470.98 693.727 1474.43 687.457C1472.81 691.687 1470.33 695.002 1468.89 698.707C1470.13 697.447 1472.78 696.322 1473.97 694.604C1471.69 698.655 1468.78 702.318 1465.34 705.457C1468.81 703.207 1471.34 698.647 1473.82 694.874C1473.41 695.954 1474.2 697.874 1473.77 698.917C1484.41 683.564 1471.16 708.247 1466.96 710.639C1469.69 708.569 1471.46 704.602 1474 700.634C1471.07 705.967 1468.47 709.477 1465.11 712.154C1470.75 708.714 1475.3 703.748 1478.23 697.829C1476.17 703.49 1473.08 708.719 1469.11 713.249C1470.61 712.087 1470.76 710.384 1472.2 708.667C1471.31 712.559 1467.95 714.667 1465.75 716.917C1470.37 714.164 1474.31 711.194 1477.41 706.192C1475.86 710.607 1473.43 714.662 1470.27 718.109C1473.82 714.824 1476.01 710.609 1479.15 704.422C1475.95 711.457 1473.9 717.172 1470.15 721.072C1473.74 717.929 1475.74 713.002 1478.95 706.942C1475.42 714.344 1472.83 720.562 1468.69 724.304C1472.29 721.496 1475.37 718.061 1477.75 714.164C1475.85 717.644 1472.9 719.504 1470.82 722.032C1474.37 718.537 1477.57 713.872 1480.7 707.564C1466.17 732.112 1475.4 722.564 1484.45 701.984C1482.11 709.049 1480.6 716.812 1474.93 720.989Z" fill="url(#paint3_linear_266_7123)"/>
<path d="M25.2596 788.648C23.9621 794.363 9.97464 801.045 7.58965 805.635C5.75214 808.785 9.35965 817.635 3.36715 816.547C1.86715 817.56 2.61715 820.77 1.04214 821.648C-2.38536 820.065 -0.157856 814.8 -5.41536 820.238C-7.75536 818.955 -9.24786 816.555 -12.1654 817.538C-13.7104 817.223 -13.9729 824.288 -15.6229 823.8C-18.2329 822.015 -19.1104 821.033 -21.7654 821.183C-23.4304 819.983 -23.3629 812.55 -24.8629 811.282C-26.3629 810.015 -26.1754 816.638 -27.8029 814.973C-31.3279 810.218 -37.5529 799.695 -38.8879 794.782C-39.1354 794.55 -26.4754 811.207 -25.3204 810.188C-25.4929 806.438 -39.7129 792.713 -38.8879 788.003C-42.0679 788.955 -8.65536 820.838 -22.1629 806.003C-28.4029 799.47 -26.0029 801.982 -21.7954 804.18C-18.4429 805.065 -16.3054 807.18 -19.8904 802.755C-19.7554 802.32 -15.7729 806.032 -15.6679 805.185C-19.3729 806.557 -40.3279 778.245 -38.2879 776.453C-37.4479 779.108 -25.2379 798.105 -20.8054 796.755C-20.9404 796.155 -33.7054 784.905 -26.2204 790.058C-27.6004 787.103 -31.4704 781.058 -32.6929 777.765C-32.2354 777.893 -21.9079 791.828 -20.1304 788.55C-21.4129 785.708 -27.0904 776.685 -20.2729 782.94C-11.5804 788.843 -24.8854 778.44 -25.1929 775.44C-22.7179 777.465 -15.9079 781.65 -12.1579 781.177C-15.3154 783.817 -38.3179 755.115 -28.2679 765.742C-28.5154 765.742 -19.2679 776.453 -18.0604 775.133C-19.0654 775.133 -29.4754 762.72 -28.5604 761.7C-25.6729 764.227 -24.6529 764.288 -19.6654 768.87C-11.2129 774.705 -11.6704 771.232 -19.7329 765.87C-23.0254 762.802 -26.0179 757.387 -25.8904 757.162C-21.6079 761.572 -20.1604 764.663 -23.1304 757.223C-14.2279 765.218 -24.2629 752.528 -24.2404 750.285C-18.6604 756.188 -22.9204 750.78 -23.8504 747.675C-23.4754 744.855 -22.8679 747.96 -21.9979 747.525C-17.8279 750.338 -22.5679 745.192 -22.3429 743.842C-22.4854 743.64 -17.9329 750.81 -17.2654 749.79C-17.5729 749.407 -21.9079 743.31 -21.4504 742.56C-21.7129 742.958 -14.7004 751.02 -13.4629 749.235C-17.1529 745.897 -18.9229 746.288 -12.0154 746.88C-16.3129 745.17 -20.1304 739.8 -21.1279 735.547C-21.6979 736.297 -8.52786 744.547 -12.3004 738.78C-10.5604 736.92 -13.1929 738.315 -15.6154 736.44C-19.0204 733.252 -19.3654 732.285 -14.9554 735.42C-6.49536 737.767 -18.7054 731.235 -18.0829 728.955C-16.5829 730.455 -11.7979 732.9 -10.0504 730.635C-11.6554 730.23 -15.7504 728.033 -13.3804 725.865C-12.6304 735.908 -12.7654 725.31 -12.4279 723C-11.6779 724.44 -11.2129 727.597 -10.5679 729.12C-10.1029 729.03 -10.4629 724.14 -10.2379 724.455C-4.67286 724.455 -9.33786 729.803 -11.6854 731.062C-10.9354 732.84 -7.18536 727.65 -7.27536 727.65C-6.79536 730.418 -9.35286 734.4 -11.6929 735.15C-10.1029 737.723 -5.50536 729.15 -8.26536 735.24C-7.86036 736.41 -11.6104 738.577 -12.0154 738.825C-11.2327 739.594 -10.2148 740.079 -9.12439 740.201C-8.03396 740.323 -6.93399 740.076 -6.00035 739.5C-5.77536 740.407 -8.55786 742.328 -8.49786 742.71C-8.34786 743.708 -6.24786 741.21 -6.13536 741.525C-5.58036 743.025 -11.3854 746.168 -12.1354 745.988C-10.0279 748.395 -2.64035 743.513 -8.30285 748.133C-15.3304 753.195 -3.54786 747.007 -3.68285 746.092C4.05714 740.662 -10.8304 756.105 -9.55536 756.457C-8.55036 758.137 0.322144 750 0.074646 749.887C-1.09536 754.387 -7.71786 759.712 -12.3529 760.537C-8.19786 764.94 1.26715 752.94 2.12965 750.412C2.97715 751.417 -5.52785 763.552 -6.48786 763.665C-4.32785 765.052 4.16964 751.665 5.01714 753.165C5.17464 759.022 -10.8454 773.362 -2.48286 768.81C-5.17535 774.765 2.90965 765.135 4.10965 763.305C9.13465 755.805 6.31464 762.038 2.42215 768.66C-2.52785 775.538 -1.71785 776.73 -6.42786 780.172C-4.02785 782.632 7.41714 766.545 6.63715 765.922C4.99464 772.035 2.03965 780.285 -2.50536 784.305C-0.862854 785.85 8.56465 770.97 7.99464 770.805C7.38715 776.46 -0.255356 788.52 -6.03036 790.38C-4.53036 794.047 3.15714 786.532 4.03465 785.88C4.58215 786.757 -2.71535 792.375 -3.05285 792.63C-0.592854 794.7 11.9846 777.188 11.1146 776.648C12.6146 778.193 -2.02536 798.278 -4.63536 797.288C-4.17036 798.39 2.45964 792.195 2.45964 792.337C0.892143 794.797 -1.98786 796.935 -1.21535 800.017C7.67215 797.572 24.4646 763.132 6.53964 794.902C-13.8529 814.897 9.12714 795.817 11.2571 790.492C11.7371 791.047 6.39714 801.24 6.29214 801.608C16.3946 792.413 6.06715 805.53 4.28215 808.95C8.18214 808.8 15.5321 798.45 17.1446 795.495C17.8421 796.073 8.42215 809.28 7.97964 809.497C14.3921 811.695 24.3146 790.5 25.2596 788.648Z" fill="url(#paint4_linear_266_7123)"/>
</g>
<defs>
<linearGradient id="paint0_linear_266_7123" x1="590.377" y1="1579.16" x2="608.377" y2="-18.8335" gradientUnits="userSpaceOnUse">
<stop offset="0.05" stop-color="#000428"/>
<stop offset="0.2" stop-color="#00072C"/>
<stop offset="0.37" stop-color="#00103A"/>
<stop offset="0.54" stop-color="#001E4F"/>
<stop offset="0.72" stop-color="#00326E"/>
<stop offset="0.9" stop-color="#004C94"/>
<stop offset="1" stop-color="#005CAD"/>
</linearGradient>
<linearGradient id="paint1_linear_266_7123" x1="287.61" y1="470.369" x2="290.01" y2="257.189" gradientUnits="userSpaceOnUse">
<stop stop-color="#FFEBDE"/>
<stop offset="0.34" stop-color="#FFEEE2"/>
<stop offset="0.71" stop-color="#FFF6EF"/>
<stop offset="1" stop-color="white"/>
</linearGradient>
<linearGradient id="paint2_linear_266_7123" x1="936.045" y1="217.447" x2="990.757" y2="442.552" gradientUnits="userSpaceOnUse">
<stop stop-color="#FFEBDE"/>
<stop offset="0.34" stop-color="#FFEEE2"/>
<stop offset="0.71" stop-color="#FFF6EF"/>
<stop offset="1" stop-color="white"/>
</linearGradient>
<linearGradient id="paint3_linear_266_7123" x1="1400.01" y1="470.782" x2="1556.36" y2="1114.14" gradientUnits="userSpaceOnUse">
<stop offset="0.05" stop-color="#000428"/>
<stop offset="0.22" stop-color="#00072C"/>
<stop offset="0.41" stop-color="#001039"/>
<stop offset="0.61" stop-color="#001F4F"/>
<stop offset="0.81" stop-color="#00346D"/>
<stop offset="1" stop-color="#004E92"/>
</linearGradient>
<linearGradient id="paint4_linear_266_7123" x1="-33.7748" y1="699.028" x2="149.592" y2="1328.52" gradientUnits="userSpaceOnUse">
<stop offset="0.05" stop-color="#000428"/>
<stop offset="0.22" stop-color="#00072C"/>
<stop offset="0.41" stop-color="#001039"/>
<stop offset="0.61" stop-color="#001F4F"/>
<stop offset="0.81" stop-color="#00346D"/>
<stop offset="1" stop-color="#004E92"/>
</linearGradient>
<clipPath id="clip0_266_7123">
<rect width="1440" height="810" fill="white"/>
</clipPath>
</defs>
</svg>
