<svg width="1440" height="810" viewBox="0 0 1440 810" fill="none" xmlns="http://www.w3.org/2000/svg">
<g clip-path="url(#clip0_266_1569)">
<path d="M314.002 674.46C339.307 636.39 358.41 606.96 369.427 589.875C407.812 530.378 418.38 512.003 444.172 500.985C464.242 492.413 471.09 497.88 496.245 485.918C522.69 473.333 521.745 464.123 551.055 443.43C589.222 416.483 603.69 423.008 642.87 392.73C651.757 385.86 653.707 383.438 659.797 377.948C666.84 371.588 672.225 367.403 674.047 365.948C680.797 360.57 699.247 341.07 743.715 289.275C768.515 305.717 794.315 320.598 820.965 333.833C861 353.663 866.445 351.563 911.407 373.583C957.112 395.955 962.407 403.463 979.207 403.29C997.582 403.095 1024.49 393.75 1057.21 347.79C1083.3 358.777 1108.39 371.996 1132.21 387.3C1146.65 396.6 1162.7 407.033 1181.37 424.29C1193.3 435.315 1207.56 447.728 1218.37 465.398C1248.17 514.148 1234.87 553.943 1255.23 562.313C1273.23 569.7 1286.84 539.948 1314.29 543.503C1344.4 547.41 1368.29 588.443 1374.66 623.078C1381.49 660.458 1363.7 667.755 1366.36 718.905C1368.61 761.76 1381.73 769.335 1377.33 794.273C1373.47 816.023 1357.36 844.763 1301.83 873.225C1085.74 918.075 809.01 936.923 514.02 850.455C478.44 840.03 444.187 828.533 411.27 816.203L314.002 674.46Z" fill="url(#paint0_linear_266_1569)"/>
<path opacity="0.06" d="M695.752 389.25C694.702 384.75 697.32 382.425 717.75 345.248C727.147 328.148 734.677 313.935 739.747 304.253C744.18 307.095 750.862 311.513 758.752 317.25C781.455 333.75 787.62 341.835 800.752 351.248C804.622 354.03 811.095 358.35 851.752 374.25C904.305 394.808 912.907 395.183 912.75 398.25C912 413.288 704.31 425.663 695.752 389.25Z" fill="url(#paint1_linear_266_1569)"/>
</g>
<defs>
<linearGradient id="paint0_linear_266_1569" x1="894.675" y1="1021.3" x2="818.175" y2="454.298" gradientUnits="userSpaceOnUse">
<stop offset="0.05" stop-color="#FEAC1F"/>
<stop offset="0.18" stop-color="#FAA81E"/>
<stop offset="0.33" stop-color="#EE9A1C"/>
<stop offset="0.48" stop-color="#D98518"/>
<stop offset="0.64" stop-color="#BD6612"/>
<stop offset="0.8" stop-color="#983F0B"/>
<stop offset="0.96" stop-color="#6C1003"/>
<stop offset="1" stop-color="#5F0200"/>
</linearGradient>
<linearGradient id="paint1_linear_266_1569" x1="868.89" y1="310.83" x2="760.567" y2="414.51" gradientUnits="userSpaceOnUse">
<stop offset="0.05" stop-color="#FEAC1F"/>
<stop offset="0.18" stop-color="#FAA81E"/>
<stop offset="0.33" stop-color="#EE9A1C"/>
<stop offset="0.48" stop-color="#D98518"/>
<stop offset="0.64" stop-color="#BD6612"/>
<stop offset="0.8" stop-color="#983F0B"/>
<stop offset="0.96" stop-color="#6C1003"/>
<stop offset="1" stop-color="#5F0200"/>
</linearGradient>
<clipPath id="clip0_266_1569">
<rect width="1440" height="810" fill="white"/>
</clipPath>
</defs>
</svg>
