<?xml version="1.0" encoding="utf-8"?>
<!-- Generator: Adobe Illustrator 25.4.2, SVG Export Plug-In . SVG Version: 6.00 Build 0)  -->
<svg version="1.1" id="Layer_1" xmlns="http://www.w3.org/2000/svg" xmlns:xlink="http://www.w3.org/1999/xlink" x="0px" y="0px"
	 viewBox="0 0 142.69 24.83" style="enable-background:new 0 0 142.69 24.83;" xml:space="preserve">
<style type="text/css">
	.st0{fill:#FFFFFF;}
	.st1{fill:#FFFFFF;}
	.st2{fill:#FFFFFF;}
	.st3{fill:#FFFFFF;}
	.st4{fill:#FFFFFF;}
	.st5{fill:none;}
	.st6{fill:none;stroke:#FFFFFF;stroke-miterlimit:10;}
</style>
<g>
	<path class="st3" d="M8.17,10.7c0.25,0,0.49-0.09,0.68-0.28l7.35-7.35c0.38-0.38,0.38-0.99,0-1.36c-0.38-0.38-0.99-0.38-1.36,0
		L7.49,9.05c-0.38,0.38-0.38,0.99,0,1.36C7.68,10.6,7.93,10.7,8.17,10.7z"/>
	<path class="st3" d="M19.72,5.23c-0.38-0.38-0.99-0.38-1.36,0L2.37,21.22c-0.38,0.38-0.38,0.99,0,1.36
		c0.19,0.19,0.43,0.28,0.68,0.28c0.25,0,0.49-0.09,0.68-0.28L19.72,6.59C20.1,6.21,20.1,5.6,19.72,5.23z"/>
	<path class="st3" d="M23.25,8.75c-0.38-0.38-0.99-0.38-1.36,0L11.84,18.79c-0.38,0.38-0.38,0.99,0,1.36
		c0.19,0.19,0.43,0.28,0.68,0.28c0.25,0,0.49-0.09,0.68-0.28l10.04-10.04C23.62,9.74,23.62,9.13,23.25,8.75z"/>
</g>
<g>
	<path class="st3" d="M34.06,11.13c0-0.51,0.4-0.91,0.91-0.91h3.67c1.29,0,2.3,0.38,2.96,1.03c0.54,0.56,0.85,1.32,0.85,2.21v0.03
		c0,1.64-0.95,2.64-2.33,3.07l1.97,2.48c0.18,0.22,0.29,0.41,0.29,0.69c0,0.5-0.43,0.84-0.87,0.84c-0.41,0-0.67-0.19-0.88-0.47
		l-2.49-3.18h-2.27v2.76c0,0.5-0.4,0.89-0.89,0.89c-0.51,0-0.91-0.4-0.91-0.89V11.13z M38.5,15.31c1.29,0,2.11-0.67,2.11-1.72v-0.03
		c0-1.1-0.79-1.7-2.13-1.7h-2.63v3.45H38.5z"/>
	<path class="st3" d="M44.21,15.39v-0.03c0-2.89,2.23-5.31,5.38-5.31c3.15,0,5.35,2.39,5.35,5.28v0.03c0,2.89-2.23,5.31-5.38,5.31
		C46.41,20.67,44.21,18.28,44.21,15.39z M53.05,15.39v-0.03c0-1.99-1.45-3.65-3.49-3.65c-2.04,0-3.46,1.63-3.46,3.62v0.03
		c0,1.99,1.45,3.64,3.49,3.64C51.63,19,53.05,17.38,53.05,15.39z"/>
	<path class="st3" d="M56.68,15.39v-0.03c0-2.92,2.19-5.31,5.3-5.31c1.58,0,2.63,0.47,3.52,1.16c0.19,0.15,0.35,0.4,0.35,0.72
		c0,0.5-0.4,0.88-0.89,0.88c-0.25,0-0.43-0.09-0.54-0.18c-0.7-0.57-1.47-0.92-2.45-0.92c-1.95,0-3.39,1.61-3.39,3.62v0.03
		c0,2.01,1.42,3.64,3.39,3.64c1.09,0,1.82-0.35,2.57-0.98c0.13-0.12,0.32-0.21,0.54-0.21c0.45,0,0.85,0.38,0.85,0.84
		c0,0.28-0.13,0.5-0.29,0.65c-0.97,0.85-2.07,1.38-3.73,1.38C58.91,20.67,56.68,18.34,56.68,15.39z"/>
	<path class="st3" d="M67.96,11.05c0-0.5,0.4-0.89,0.91-0.89c0.5,0,0.89,0.4,0.89,0.89v4.34l4.87-4.9c0.21-0.22,0.43-0.34,0.75-0.34
		c0.5,0,0.84,0.4,0.84,0.84c0,0.28-0.12,0.48-0.32,0.67l-3.2,3.08l3.46,4.3c0.15,0.19,0.25,0.37,0.25,0.65c0,0.5-0.4,0.88-0.91,0.88
		c-0.35,0-0.57-0.18-0.76-0.43l-3.3-4.21l-1.67,1.61v2.13c0,0.5-0.4,0.89-0.89,0.89c-0.51,0-0.91-0.4-0.91-0.89V11.05z"/>
	<path class="st3" d="M90.76,11.9h-2.49c-0.47,0-0.84-0.38-0.84-0.84c0-0.45,0.37-0.84,0.84-0.84h6.82c0.46,0,0.82,0.38,0.82,0.84
		c0,0.45-0.37,0.84-0.82,0.84h-2.51v7.77c0,0.5-0.41,0.89-0.91,0.89c-0.5,0-0.91-0.4-0.91-0.89V11.9z"/>
	<path class="st3" d="M123.81,11.9h-2.49c-0.47,0-0.84-0.38-0.84-0.84c0-0.45,0.37-0.84,0.84-0.84h6.82c0.46,0,0.82,0.38,0.82,0.84
		c0,0.45-0.37,0.84-0.82,0.84h-2.51v7.77c0,0.5-0.41,0.89-0.91,0.89c-0.5,0-0.91-0.4-0.91-0.89V11.9z"/>
	<g>
		<path class="st3" d="M84.63,16.12c0.44,0,0.81-0.35,0.81-0.79c0-0.45-0.37-0.82-0.81-0.82h-2.94v1.61H84.63z"/>
		<path class="st3" d="M85.37,18.88h-5.15v-7.04h5.08c0.44,0,0.81-0.35,0.81-0.81c0-0.44-0.37-0.81-0.81-0.81h-5.97
			c-0.51,0-0.91,0.4-0.91,0.91v8.45c0,0.51,0.4,0.91,0.91,0.91h6.04c0.44,0,0.81-0.35,0.81-0.81
			C86.17,19.25,85.81,18.88,85.37,18.88z"/>
	</g>
	<g>
		<path class="st3" d="M132.6,11.05c0-0.5-0.4-0.89-0.89-0.89c-0.51,0-0.91,0.4-0.91,0.89v8.62c0,0.5,0.4,0.89,0.91,0.89
			c0.5,0,0.89-0.4,0.89-0.89V11.05z"/>
		<path class="st3" d="M138.39,10.15c-0.5,0-0.9,0.4-0.9,0.89v3.45h-3.18v1.67h3.18v3.51c0,0.5,0.4,0.89,0.9,0.89
			c0.51,0,0.91-0.4,0.91-0.89v-8.62C139.3,10.55,138.9,10.15,138.39,10.15z"/>
	</g>
	<g>
		<polygon class="st3" points="113.65,16.41 113.65,16.41 113.83,16 		"/>
		<path class="st3" d="M120.41,19.32l-3.81-8.51c-0.21-0.45-0.56-0.73-1.07-0.73h-0.09c-0.51,0-0.88,0.28-1.09,0.73l-3.81,8.51
			c-0.07,0.15-0.12,0.28-0.12,0.41c0,0.47,0.37,0.84,0.84,0.84c0.38,0,0.69-0.21,0.84-0.57l0.44-1l0,0l1.12-2.58h0l0.18-0.41
			l0.01-0.02l0,0l1.62-3.72l1.8,4.15h-2.05l-0.62,1.6h3.35l0.84,1.92c0.16,0.38,0.45,0.63,0.88,0.63c0.48,0,0.85-0.38,0.85-0.87
			C120.51,19.58,120.48,19.45,120.41,19.32z"/>
		<polygon class="st3" points="113.83,15.98 113.83,16 113.83,15.98 		"/>
	</g>
	<g>
		<path class="st3" d="M106.2,10.23h-3.14c-0.51,0-0.91,0.4-0.91,0.91v8.54c0,0.5,0.4,0.89,0.91,0.89c0.5,0,0.89-0.4,0.89-0.89v-7.8
			h2.1c1.35,0,2.21,0.63,2.21,1.83v0.03c0,1.07-0.85,1.83-2.21,1.83h-2.1v1.63h2.04c2.26,0,4.11-1.2,4.11-3.51v-0.03
			C110.1,11.59,108.6,10.23,106.2,10.23z"/>
	</g>
</g>
</svg>
