<svg width="212" height="35" viewBox="0 0 212 35" fill="none" xmlns="http://www.w3.org/2000/svg">
<path d="M29.5634 1.5706C29.5634 2.44047 28.8627 3.1412 27.9928 3.1412H2.50078C1.63091 3.1412 0.930176 2.44047 0.930176 1.5706C0.930176 0.700729 1.63091 0 2.50078 0H27.9928C28.8627 0 29.5634 0.700729 29.5634 1.5706Z" fill="#C4C4C4"/>
<path d="M35.0001 7.85283C35.0001 8.7227 34.2994 9.42343 33.4295 9.42343H2.50078C1.63091 9.42343 0.930176 8.7227 0.930176 7.85283C0.930176 6.98296 1.63091 6.28223 2.50078 6.28223H33.4295C34.2994 6.28223 35.0001 6.98296 35.0001 7.85283Z" fill="#C4C4C4"/>
<path d="M33.0429 14.1351C33.0429 15.0049 32.3422 15.7057 31.4723 15.7057H2.50078C1.6309 15.7057 0.930176 15.0049 0.930176 14.1351C0.930176 13.2652 1.6309 12.5645 2.50078 12.5645H31.4723C32.3422 12.5645 33.0429 13.2652 33.0429 14.1351Z" fill="#C4C4C4"/>
<path d="M28.4278 20.4178C28.4278 21.2876 27.727 21.9884 26.8572 21.9884H2.50078C1.6309 21.9884 0.930176 21.2876 0.930176 20.4178C0.930176 19.5479 1.6309 18.8472 2.50078 18.8472H26.8572C27.727 18.8472 28.4278 19.5479 28.4278 20.4178Z" fill="#C4C4C4"/>
<path d="M31.134 26.7005C31.134 27.5704 30.4333 28.2711 29.5634 28.2711H2.50078C1.6309 28.2711 0.930176 27.5704 0.930176 26.7005C0.930176 25.8306 1.6309 25.1299 2.50078 25.1299H29.5634C30.4333 25.1299 31.134 25.8548 31.134 26.7005Z" fill="#C4C4C4"/>
<path d="M35.0001 32.9827C35.0001 33.8526 34.2994 34.5533 33.4295 34.5533H2.50078C1.63091 34.5533 0.930176 33.8526 0.930176 32.9827C0.930176 32.1128 1.63091 31.4121 2.50078 31.4121H33.4295C34.2994 31.4121 35.0001 32.1128 35.0001 32.9827Z" fill="#C4C4C4"/>
<path d="M86.5095 24.3662C86.2434 21.7817 84.7232 19.7294 82.0627 19.7294C79.6303 19.7294 77.882 21.6297 77.54 24.3281H86.5095V24.3662ZM82.5188 34.7038C77.464 34.7038 73.5493 31.0172 73.5493 25.6204V25.5443C73.5493 20.5275 77.0839 16.4229 82.1007 16.4229C87.6496 16.4229 90.4241 20.9836 90.4241 25.0503C90.4241 26.1905 89.55 26.9886 88.5238 26.9886H77.54C77.958 29.8391 79.9724 31.4353 82.5948 31.4353C84.3051 31.4353 85.5973 30.8272 86.7375 29.9151C87.0415 29.687 87.3076 29.535 87.7637 29.535C88.6758 29.535 89.3599 30.2191 89.3599 31.1693C89.3599 31.6633 89.1319 32.0814 88.8278 32.3855C87.2316 33.8297 85.2552 34.7038 82.5188 34.7038Z" fill="#C4C4C4"/>
<path d="M94.1108 11.9763C94.1108 10.8741 94.985 10 96.0872 10C97.1893 10 98.1015 10.9121 98.1015 11.9763V32.5377C98.1015 33.6779 97.1893 34.514 96.0872 34.514C94.985 34.514 94.1108 33.6399 94.1108 32.5377V11.9763Z" fill="#C4C4C4"/>
<path d="M114.672 24.3662C114.406 21.7817 112.886 19.7674 110.225 19.7674C107.793 19.7674 106.045 21.6677 105.703 24.3662H114.672ZM110.681 34.7038C105.627 34.7038 101.712 31.0172 101.712 25.6204V25.5443C101.712 20.5275 105.246 16.4229 110.263 16.4229C115.85 16.4229 118.587 20.9836 118.587 25.0503C118.587 26.1905 117.713 26.9886 116.686 26.9886H105.703C106.121 29.8391 108.173 31.4353 110.757 31.4353C112.43 31.4353 113.76 30.8272 114.9 29.9151C115.204 29.687 115.47 29.535 115.926 29.535C116.8 29.535 117.523 30.2191 117.523 31.1693C117.523 31.6633 117.294 32.0814 116.99 32.3855C115.394 33.8297 113.418 34.7038 110.681 34.7038Z" fill="#C4C4C4"/>
<path d="M128.583 34.6662H128.393C127.29 34.6662 126.568 33.9821 126.112 32.918L120.259 19.5778C120.145 19.2737 120.031 18.9317 120.031 18.5896C120.031 17.6014 120.943 16.6513 122.008 16.6513C123.11 16.6513 123.68 17.2974 123.984 18.0955L128.469 29.6874L133.029 18.0195C133.333 17.3354 133.866 16.6133 134.93 16.6133C136.032 16.6133 136.868 17.4494 136.868 18.5516C136.868 18.8937 136.716 19.3117 136.64 19.5018L130.825 32.8799C130.407 33.9441 129.685 34.6662 128.583 34.6662Z" fill="#C4C4C4"/>
<path d="M150.398 28.0151V26.8369C149.372 26.4568 148.004 26.1528 146.407 26.1528C143.823 26.1528 142.303 27.2549 142.303 29.0792V29.1173C142.303 30.8275 143.785 31.7777 145.723 31.7777C148.384 31.7777 150.398 30.2574 150.398 28.0151ZM138.388 29.2693V29.1933C138.388 25.4306 141.353 23.5683 145.609 23.5683C147.548 23.5683 148.954 23.8724 150.322 24.2905V23.8724C150.322 21.402 148.802 20.0718 145.989 20.0718C144.469 20.0718 143.215 20.3378 142.113 20.7559C141.885 20.8319 141.695 20.8699 141.467 20.8699C140.517 20.8699 139.756 20.1478 139.756 19.1976C139.756 18.4755 140.25 17.8294 140.859 17.6014C142.531 16.9553 144.203 16.5752 146.484 16.5752C149.106 16.5752 151.044 17.2593 152.298 18.5515C153.591 19.8057 154.199 21.668 154.199 23.9484V32.5758C154.199 33.678 153.325 34.5141 152.222 34.5141C151.082 34.5141 150.284 33.716 150.284 32.8039V32.1197C149.106 33.564 147.282 34.6662 144.583 34.6662C141.315 34.7042 138.388 32.8039 138.388 29.2693Z" fill="#C4C4C4"/>
<path d="M158.341 18.6654C158.341 17.5252 159.215 16.651 160.318 16.651C161.458 16.651 162.332 17.5632 162.332 18.6654V19.5395C163.472 17.9053 165.068 16.499 167.805 16.499C171.758 16.499 174.038 19.1595 174.038 23.1881V32.5377C174.038 33.6398 173.164 34.514 172.062 34.514C170.921 34.514 170.047 33.6398 170.047 32.5377V24.4043C170.047 21.6679 168.679 20.1476 166.323 20.1476C164.004 20.1476 162.37 21.7819 162.37 24.4803V32.5377C162.37 33.6398 161.458 34.514 160.356 34.514C159.253 34.514 158.379 33.6398 158.379 32.5377V18.6654H158.341Z" fill="#C4C4C4"/>
<path d="M177.269 25.6964V25.6204C177.269 20.6416 181.107 16.4609 186.39 16.4609C189.126 16.4609 191.027 17.3731 192.509 18.6273C192.775 18.8553 193.155 19.3494 193.155 20.0335C193.155 21.0597 192.319 21.8578 191.293 21.8578C190.799 21.8578 190.343 21.6678 190.115 21.4778C189.088 20.6036 187.948 19.9955 186.352 19.9955C183.426 19.9955 181.297 22.5039 181.297 25.5824V25.6584C181.297 28.775 183.464 31.2454 186.542 31.2454C188.138 31.2454 189.355 30.6373 190.457 29.6871C190.685 29.4971 191.065 29.269 191.559 29.269C192.509 29.269 193.269 30.0672 193.269 31.0173C193.269 31.5494 193.079 31.9675 192.699 32.2715C191.141 33.7538 189.241 34.7419 186.352 34.7419C181.107 34.7039 177.269 30.6373 177.269 25.6964Z" fill="#C4C4C4"/>
<path d="M207.978 24.3662C207.712 21.7817 206.191 19.7674 203.531 19.7674C201.061 19.7674 199.35 21.6677 199.008 24.3662H207.978ZM204.025 34.7038C198.97 34.7038 195.056 31.0172 195.056 25.6204V25.5443C195.056 20.5275 198.59 16.4229 203.607 16.4229C209.156 16.4229 211.93 20.9836 211.93 25.0503C211.93 26.1905 211.056 26.9886 210.03 26.9886H199.046C199.464 29.8391 201.517 31.4353 204.101 31.4353C205.773 31.4353 207.104 30.8272 208.244 29.9151C208.548 29.687 208.814 29.535 209.27 29.535C210.182 29.535 210.866 30.2191 210.866 31.1693C210.866 31.6633 210.638 32.0814 210.334 32.3855C208.738 33.8297 206.724 34.7038 204.025 34.7038Z" fill="#C4C4C4"/>
<path d="M70.9651 18.5133V18.4373C70.9651 16.4229 70.281 14.6746 69.0268 13.4204C67.5445 11.9762 65.2642 11.1021 62.3377 11.1021H54.0523C52.8741 11.1021 52 12.0142 52 13.1544V32.4616C52 33.5637 52.8741 34.4759 54.0523 34.4759C55.1925 34.4759 56.0667 33.5637 56.0667 32.4616V27.5588V26.2285V22.6179V20.9077V14.8267H61.9956C64.9981 14.8267 66.7844 16.1949 66.7844 18.6653V18.7413C66.7844 21.0977 64.9221 22.6179 61.9956 22.6179H58.385L61.6916 26.9126L66.8604 33.4497C67.3165 34.0578 67.9246 34.5139 68.8368 34.5139C69.8249 34.5139 70.8131 33.7538 70.8131 32.6136C70.8131 31.9675 70.547 31.5494 70.167 31.0553L65.7203 25.4304C68.7988 24.4802 70.9651 22.2379 70.9651 18.5133Z" fill="#C4C4C4"/>
</svg>
