<svg width="1440" height="810" viewBox="0 0 1440 810" fill="none" xmlns="http://www.w3.org/2000/svg">
<g clip-path="url(#clip0_266_1466)">
<path d="M1477.72 332.925C1391.47 322.425 1345.77 337.425 1319.77 353.925C1279.65 379.342 1285.32 408.99 1238.33 430.215C1188.95 452.512 1154.33 432.585 1127.27 454.965C1093.47 482.977 1132.36 526.597 1102.52 546.232C1101.72 546.756 1100.89 547.231 1100.04 547.657C1071.61 561.54 1007.04 494.122 967.29 448.237C945 488.512 901.597 511.53 858.082 506.467C802.372 499.987 775.942 450.9 773.79 446.737L675.637 517.92C652.762 532.605 628.822 549.105 604.387 567.555C578.467 587.145 555.39 606.375 534.945 624.712L485.115 670.77L436.23 861.202L650.955 891.75L1008.81 977.572L1285.22 983.295L1502.41 947.055C1540.24 856.785 1578.09 766.515 1615.94 676.245C1603.59 596.78 1591.25 517.317 1578.91 437.857L1477.72 332.925Z" fill="url(#paint0_linear_266_1466)"/>
<path opacity="0.04" d="M1436.75 387.75C1409 373.628 1362.88 378.6 1346.75 406.748C1331.96 432.585 1343.71 475.65 1381.75 502.748C1379.31 519.135 1373.71 531.053 1367.75 539.753C1335.65 586.605 1253.25 598.17 1161.75 570.75C1179.89 594.075 1214.25 629.415 1264.75 638.753C1289.76 643.373 1309.7 639.945 1345.75 633.75C1402.19 624.053 1430.41 619.2 1450.75 600.75C1505.6 550.98 1495.79 417.75 1436.75 387.75Z" fill="url(#paint1_linear_266_1466)"/>
</g>
<defs>
<linearGradient id="paint0_linear_266_1466" x1="985.2" y1="960.697" x2="1088.7" y2="474.697" gradientUnits="userSpaceOnUse">
<stop offset="0.05" stop-color="#FEAC1F"/>
<stop offset="0.18" stop-color="#FAA81E"/>
<stop offset="0.33" stop-color="#EE9A1C"/>
<stop offset="0.48" stop-color="#D98518"/>
<stop offset="0.64" stop-color="#BD6612"/>
<stop offset="0.8" stop-color="#983F0B"/>
<stop offset="0.96" stop-color="#6C1003"/>
<stop offset="1" stop-color="#5F0200"/>
</linearGradient>
<linearGradient id="paint1_linear_266_1466" x1="1161.75" y1="510.503" x2="1486.93" y2="510.503" gradientUnits="userSpaceOnUse">
<stop offset="0.05" stop-color="#FEAC1F"/>
<stop offset="0.18" stop-color="#FAA81E"/>
<stop offset="0.33" stop-color="#EE9A1C"/>
<stop offset="0.48" stop-color="#D98518"/>
<stop offset="0.64" stop-color="#BD6612"/>
<stop offset="0.8" stop-color="#983F0B"/>
<stop offset="0.96" stop-color="#6C1003"/>
<stop offset="1" stop-color="#5F0200"/>
</linearGradient>
<clipPath id="clip0_266_1466">
<rect width="1440" height="810" fill="white"/>
</clipPath>
</defs>
</svg>
