<svg width="1440" height="810" viewBox="0 0 1440 810" fill="none" xmlns="http://www.w3.org/2000/svg">
<g clip-path="url(#clip0_266_6266)">
<path d="M314.002 674.46C339.307 636.39 358.41 606.96 369.427 589.875C407.812 530.378 418.38 512.003 444.172 500.985C464.242 492.413 471.09 497.88 496.245 485.918C522.69 473.333 521.745 464.123 551.055 443.43C589.222 416.483 603.69 423.008 642.87 392.73C651.757 385.86 653.707 383.438 659.797 377.948C666.84 371.588 672.225 367.403 674.047 365.948C680.797 360.57 699.247 341.07 743.715 289.275C768.515 305.717 794.315 320.598 820.965 333.833C861 353.663 866.445 351.563 911.407 373.583C957.112 395.955 962.407 403.463 979.207 403.29C997.582 403.095 1024.49 393.75 1057.21 347.79C1083.3 358.777 1108.39 371.996 1132.21 387.3C1146.65 396.6 1162.7 407.033 1181.37 424.29C1193.3 435.315 1207.56 447.728 1218.37 465.398C1248.17 514.148 1234.87 553.943 1255.23 562.313C1273.23 569.7 1286.84 539.948 1314.29 543.503C1344.4 547.41 1368.29 588.443 1374.66 623.078C1381.49 660.458 1363.7 667.755 1366.36 718.905C1368.61 761.76 1381.73 769.335 1377.33 794.273C1373.47 816.023 1357.36 844.763 1301.83 873.225C1085.74 918.075 809.01 936.923 514.02 850.455C478.44 840.03 444.187 828.533 411.27 816.203L314.002 674.46Z" fill="url(#paint0_linear_266_6266)"/>
<path d="M1434.82 222.06C1435.04 222.06 1435.22 221.879 1435.22 221.655C1435.22 221.431 1435.04 221.25 1434.82 221.25C1434.59 221.25 1434.41 221.431 1434.41 221.655C1434.41 221.879 1434.59 222.06 1434.82 222.06Z" fill="#FFFCF8"/>
<path opacity="0.14" d="M695.752 389.249C694.702 384.749 697.32 382.424 717.75 345.247C727.147 328.147 734.677 313.934 739.747 304.252C744.18 307.094 750.862 311.512 758.752 317.249C781.455 333.749 787.62 341.834 800.752 351.247C804.622 354.029 811.095 358.349 851.752 374.249C904.305 394.807 912.907 395.182 912.75 398.249C912 413.287 704.31 425.662 695.752 389.249Z" fill="url(#paint1_linear_266_6266)"/>
</g>
<defs>
<linearGradient id="paint0_linear_266_6266" x1="839.97" y1="16.1854" x2="846.285" y2="746.888" gradientUnits="userSpaceOnUse">
<stop offset="0.05" stop-color="#000428"/>
<stop offset="0.21" stop-color="#00072C"/>
<stop offset="0.38" stop-color="#00103A"/>
<stop offset="0.55" stop-color="#001E4F"/>
<stop offset="0.74" stop-color="#00336E"/>
<stop offset="0.92" stop-color="#004D94"/>
<stop offset="1" stop-color="#005AA8"/>
</linearGradient>
<linearGradient id="paint1_linear_266_6266" x1="868.89" y1="310.829" x2="760.567" y2="414.509" gradientUnits="userSpaceOnUse">
<stop offset="0.05" stop-color="#000428"/>
<stop offset="0.22" stop-color="#00072C"/>
<stop offset="0.41" stop-color="#001039"/>
<stop offset="0.61" stop-color="#001F4F"/>
<stop offset="0.81" stop-color="#00346D"/>
<stop offset="1" stop-color="#004E92"/>
</linearGradient>
<clipPath id="clip0_266_6266">
<rect width="1440" height="810" fill="white"/>
</clipPath>
</defs>
</svg>
