<svg width="20" height="21" viewBox="0 0 20 21" fill="none" xmlns="http://www.w3.org/2000/svg">
<path d="M13.376 0H6.07998C2.72262 0 0 2.80512 0 6.26422V13.7813C0 17.2404 2.72262 20.0455 6.07998 20.0455H13.376C16.7333 20.0455 19.4559 17.2404 19.4559 13.7813V6.26422C19.4559 2.80512 16.7333 0 13.376 0ZM17.6319 13.7813C17.6319 16.1993 15.7228 18.1662 13.376 18.1662H6.07998C3.73311 18.1662 1.82399 16.1993 1.82399 13.7813V6.26422C1.82399 3.84623 3.73311 1.87927 6.07998 1.87927H13.376C15.7228 1.87927 17.6319 3.84623 17.6319 6.26422V13.7813Z" fill="#C32AA3"/>
<path d="M9.72797 5.01138C7.04183 5.01138 4.86398 7.25522 4.86398 10.0228C4.86398 12.7903 7.04183 15.0341 9.72797 15.0341C12.4141 15.0341 14.592 12.7903 14.592 10.0228C14.592 7.25522 12.4141 5.01138 9.72797 5.01138ZM9.72797 13.1549C8.05233 13.1549 6.68798 11.7492 6.68798 10.0228C6.68798 8.29508 8.05233 6.89064 9.72797 6.89064C11.4036 6.89064 12.768 8.29508 12.768 10.0228C12.768 11.7492 11.4036 13.1549 9.72797 13.1549Z" fill="#C32AA3"/>
<path d="M14.9568 5.30329C15.3147 5.30329 15.6049 5.00432 15.6049 4.63552C15.6049 4.26673 15.3147 3.96776 14.9568 3.96776C14.5988 3.96776 14.3086 4.26673 14.3086 4.63552C14.3086 5.00432 14.5988 5.30329 14.9568 5.30329Z" fill="#C32AA3"/>
</svg>
