<svg width="13" height="13" viewBox="0 0 13 13" fill="none" xmlns="http://www.w3.org/2000/svg">
<path d="M1.70417 0.0371094C2.18869 0.0371094 2.59803 0.194594 2.93218 0.509563C3.26633 0.809533 3.43341 1.177 3.43341 1.61195C3.43341 2.04691 3.26633 2.41437 2.93218 2.71434C2.59803 3.01431 2.18869 3.1643 1.70417 3.1643C1.21965 3.1643 0.810317 3.01431 0.476166 2.71434C0.158722 2.41437 0 2.04691 0 1.61195C0 1.177 0.158722 0.809533 0.476166 0.509563C0.810317 0.194594 1.21965 0.0371094 1.70417 0.0371094ZM7.2678 4.08671V4.49167C7.80244 4.25169 8.40391 4.1467 9.07221 4.1767C9.74052 4.2067 10.342 4.34168 10.8766 4.58166C11.4447 4.86663 11.8958 5.27909 12.2299 5.81904C12.5808 6.35898 12.7562 6.91393 12.7562 7.48387V12.7933H9.99948V7.48387C9.99948 7.36388 9.94936 7.2214 9.84912 7.05641C9.74887 6.89143 9.64027 6.79394 9.52332 6.76394C9.23929 6.62896 8.96362 6.57646 8.69629 6.60646C8.42897 6.63645 8.18671 6.69645 7.96951 6.78644C7.7189 6.89143 7.48499 7.03392 7.2678 7.2139V12.7933H4.46092V4.08671H7.2678ZM0.300736 12.7933V4.08671H3.10761V12.7933H0.300736Z" fill="#0A66C2"/>
</svg>
