<svg width="20" height="20" viewBox="0 0 20 20" fill="none" xmlns="http://www.w3.org/2000/svg">
<path d="M17.619 0H2.38096C1.06808 0 0 1.06808 0 2.38096V17.619C0 18.9319 1.06808 20 2.38096 20H17.619C18.9319 20 20 18.9319 20 17.619V2.38096C20 1.06808 18.9319 0 17.619 0ZM15.7171 8.7252C15.6079 8.73584 15.4982 8.74136 15.3886 8.74184C14.185 8.742 13.0626 8.13536 12.4034 7.12848V12.6223C12.4034 14.8649 10.5854 16.6828 8.34288 16.6828C6.10032 16.6828 4.2824 14.8649 4.2824 12.6223C4.2824 10.3798 6.10032 8.56184 8.34288 8.56184C8.42768 8.56184 8.51048 8.56944 8.59384 8.57472V10.5757C8.51048 10.5657 8.42864 10.5505 8.34288 10.5505C7.19832 10.5505 6.27048 11.4783 6.27048 12.6229C6.27048 13.7674 7.19832 14.6953 8.34288 14.6953C9.48744 14.6953 10.4986 13.7934 10.4986 12.6486L10.5186 3.31816H12.4329C12.6134 5.0348 13.9976 6.37568 15.719 6.50152V8.72536" fill="#EE1D52"/>
</svg>
