<svg width="172" height="32" viewBox="0 0 172 32" fill="none" xmlns="http://www.w3.org/2000/svg">
<path d="M156.624 19.3395C155.93 18.6491 155.104 18.1017 154.195 17.729C153.286 17.3563 152.312 17.1656 151.328 17.168H151.192C149.205 17.168 147.301 17.9493 145.896 19.3401C144.492 20.7308 143.703 22.6171 143.703 24.5839C143.703 26.5507 144.492 28.437 145.896 29.8277C147.301 31.2185 149.205 31.9998 151.192 31.9998H151.328C152.809 32 154.257 31.5652 155.489 30.7504C156.721 29.9355 157.681 28.7772 158.248 27.422C158.814 26.0668 158.963 24.5755 158.674 23.1368C158.385 21.6981 157.671 20.3766 156.624 19.3395V19.3395ZM156.413 24.1947C156.46 23.6059 156.599 23.028 156.826 22.482C156.83 22.4738 156.835 22.4666 156.843 22.4615C156.85 22.4564 156.859 22.4536 156.868 22.4534C156.877 22.4533 156.887 22.456 156.895 22.4611C156.903 22.4661 156.909 22.4734 156.913 22.482C157.124 23.031 157.25 23.6085 157.286 24.1947C157.286 24.1947 157.286 24.2193 157.286 24.2315C157.275 24.2357 157.263 24.2357 157.253 24.2315H156.475C156.468 24.2322 156.461 24.2313 156.455 24.2291C156.449 24.2269 156.443 24.2232 156.438 24.2185C156.434 24.2139 156.43 24.2082 156.428 24.2019C156.425 24.1957 156.425 24.189 156.425 24.1824L156.413 24.1947ZM156.425 24.9158C156.436 24.9117 156.448 24.9117 156.458 24.9158H157.244C157.255 24.9117 157.267 24.9117 157.277 24.9158C157.277 24.9158 157.277 24.9404 157.277 24.9527C157.234 25.5618 157.095 26.1605 156.864 26.7267C156.859 26.7344 156.853 26.7408 156.845 26.7453C156.838 26.7497 156.829 26.7521 156.82 26.7521C156.811 26.7521 156.803 26.7497 156.795 26.7453C156.787 26.7408 156.781 26.7344 156.777 26.7267C156.548 26.1608 156.415 25.5614 156.384 24.9527C156.384 24.9527 156.384 24.9281 156.384 24.9158H156.425ZM149.433 18.9093V18.938C149.59 18.8925 149.753 18.8691 149.917 18.8683C150.136 18.861 150.351 18.9212 150.534 19.0404C150.632 19.1207 150.71 19.2232 150.761 19.3394C150.811 19.4556 150.832 19.5821 150.823 19.7082V23.6047C150.823 23.6136 150.82 23.6222 150.815 23.6295C150.81 23.6368 150.803 23.6424 150.794 23.6456C150.787 23.6504 150.778 23.6529 150.77 23.6529C150.761 23.6529 150.752 23.6504 150.745 23.6456L150.294 23.2359C150.289 23.224 150.289 23.211 150.294 23.1991V22.9901C150.297 22.9603 150.307 22.9317 150.322 22.9062C150.338 22.8806 150.359 22.8589 150.385 22.8426C150.394 22.835 150.402 22.8246 150.405 22.813C150.409 22.8013 150.409 22.7888 150.405 22.777C150.401 22.7652 150.393 22.7548 150.383 22.7475C150.373 22.7402 150.36 22.7362 150.348 22.7361H147.642C147.629 22.7362 147.617 22.7402 147.606 22.7475C147.596 22.7548 147.588 22.7652 147.584 22.777C147.58 22.7888 147.58 22.8013 147.584 22.813C147.588 22.8246 147.595 22.835 147.605 22.8426C147.629 22.8591 147.65 22.881 147.665 22.9065C147.68 22.9321 147.689 22.9606 147.691 22.9901V23.3384C147.694 23.3428 147.695 23.3477 147.695 23.3527C147.695 23.3577 147.694 23.3626 147.691 23.367L147.05 24.3381C147.039 24.3479 147.025 24.3533 147.011 24.3533C146.996 24.3533 146.982 24.3479 146.972 24.3381L146.305 23.3752C146.303 23.3658 146.303 23.356 146.305 23.3466V22.9983C146.308 22.9683 146.317 22.9393 146.333 22.9136C146.349 22.8879 146.371 22.8664 146.396 22.8508C146.403 22.841 146.406 22.8296 146.406 22.818C146.406 22.8064 146.403 22.7951 146.396 22.7852C146.392 22.7733 146.384 22.763 146.374 22.7557C146.364 22.7484 146.351 22.7444 146.339 22.7443H145.557C145.547 22.7408 145.537 22.7408 145.528 22.7443C145.528 22.7156 145.528 22.6869 145.552 22.6746C145.858 21.7949 146.368 20.9987 147.041 20.3503C147.714 19.7018 148.533 19.2194 149.429 18.9421L149.433 18.9093ZM145.623 22.986V26.1818C145.62 26.2116 145.61 26.2404 145.595 26.266C145.579 26.2916 145.557 26.3132 145.532 26.3293V26.3498C145.168 25.2002 145.168 23.9677 145.532 22.818C145.558 22.8336 145.58 22.8552 145.595 22.8808C145.611 22.9065 145.621 22.9355 145.623 22.9655V22.986ZM145.569 26.4153H146.351C146.364 26.4152 146.376 26.4112 146.386 26.4039C146.397 26.3966 146.405 26.3863 146.409 26.3744C146.415 26.3646 146.418 26.3532 146.418 26.3416C146.418 26.33 146.415 26.3186 146.409 26.3088C146.383 26.2927 146.362 26.2711 146.346 26.2455C146.33 26.2199 146.321 26.1912 146.318 26.1613V24.6822C146.318 24.6723 146.321 24.6627 146.327 24.6546C146.333 24.6466 146.341 24.6405 146.351 24.6372C146.358 24.6308 146.368 24.6273 146.378 24.6273C146.388 24.6273 146.397 24.6308 146.405 24.6372L146.955 25.4238C146.961 25.4315 146.968 25.4377 146.977 25.4419C146.986 25.4462 146.995 25.4484 147.005 25.4484C147.014 25.4484 147.024 25.4462 147.032 25.4419C147.041 25.4377 147.049 25.4315 147.054 25.4238L147.609 24.6495C147.616 24.6441 147.625 24.6413 147.634 24.6413C147.642 24.6413 147.651 24.6441 147.658 24.6495C147.668 24.6522 147.677 24.6581 147.683 24.6663C147.689 24.6745 147.692 24.6844 147.691 24.6945V26.1941C147.689 26.2235 147.68 26.252 147.665 26.2775C147.65 26.3029 147.629 26.3248 147.605 26.3416C147.595 26.3492 147.588 26.3596 147.584 26.3712C147.58 26.3829 147.58 26.3954 147.584 26.4072C147.588 26.419 147.596 26.4294 147.606 26.4367C147.617 26.444 147.629 26.448 147.642 26.4481H148.424C148.436 26.4478 148.448 26.4436 148.457 26.4363C148.467 26.4289 148.474 26.4187 148.478 26.4072C148.484 26.3975 148.488 26.3861 148.488 26.3744C148.488 26.3627 148.484 26.3512 148.478 26.3416C148.452 26.3255 148.431 26.3038 148.415 26.2783C148.399 26.2527 148.389 26.2239 148.386 26.1941V23.449C148.386 23.4427 148.387 23.4364 148.389 23.4305C148.391 23.4245 148.394 23.4191 148.398 23.4144C148.403 23.4098 148.408 23.4061 148.414 23.4036C148.419 23.4011 148.426 23.3998 148.432 23.3998H149.59C149.604 23.3998 149.616 23.405 149.626 23.4142C149.635 23.4234 149.64 23.4359 149.64 23.449V26.1818C149.637 26.2116 149.628 26.2404 149.612 26.266C149.596 26.2916 149.575 26.3132 149.549 26.3293C149.539 26.337 149.532 26.3473 149.529 26.359C149.525 26.3706 149.525 26.3831 149.528 26.3949C149.533 26.4064 149.541 26.4165 149.551 26.4237C149.562 26.431 149.574 26.4352 149.586 26.4358H150.368C150.381 26.4357 150.393 26.4317 150.404 26.4244C150.414 26.4171 150.422 26.4068 150.426 26.3949C150.43 26.3831 150.43 26.3706 150.426 26.359C150.422 26.3473 150.415 26.337 150.405 26.3293C150.381 26.3126 150.36 26.2908 150.344 26.2653C150.328 26.2399 150.318 26.2114 150.314 26.1818V24.2356C150.314 24.2262 150.317 24.2169 150.322 24.2089C150.327 24.2009 150.335 24.1945 150.343 24.1906C150.352 24.1859 150.361 24.1834 150.37 24.1834C150.38 24.1834 150.389 24.1859 150.397 24.1906L150.832 24.6044C150.835 24.615 150.835 24.6266 150.832 24.6372V25.8335C150.832 27.665 150.72 28.0255 150.194 28.8982C149.669 29.7709 149.177 29.9143 148.833 29.9143C148.676 29.9155 148.522 29.879 148.382 29.8078C147.057 29.1072 146.047 27.9364 145.557 26.5301C145.557 26.5301 145.557 26.4891 145.532 26.4604C145.541 26.4639 145.551 26.4639 145.561 26.4604L145.569 26.4153ZM150.004 30.2462C150.144 30.1218 150.271 29.9846 150.385 29.8365C150.394 29.8257 150.405 29.8171 150.418 29.8114C150.431 29.8057 150.445 29.8031 150.459 29.8037C150.471 29.804 150.483 29.8076 150.493 29.8141C150.504 29.8206 150.512 29.8298 150.517 29.8406L150.811 30.3609C150.822 30.3742 150.828 30.3908 150.828 30.4081C150.828 30.4253 150.822 30.4419 150.811 30.4552C150.768 30.4821 150.717 30.4937 150.666 30.488C150.461 30.4755 150.258 30.4468 150.058 30.4019C150.021 30.4019 149.996 30.3691 149.992 30.3364C149.989 30.323 149.99 30.3091 149.994 30.2962C149.999 30.2833 150.006 30.2717 150.017 30.2626L150.004 30.2462ZM151.775 30.3609L152.073 29.8406C152.078 29.8291 152.087 29.8196 152.098 29.813C152.109 29.8065 152.122 29.8032 152.135 29.8037C152.148 29.8029 152.161 29.8051 152.173 29.81C152.186 29.815 152.196 29.8227 152.205 29.8324C152.317 29.9816 152.445 30.1189 152.586 30.2421C152.596 30.2512 152.604 30.2628 152.608 30.2757C152.613 30.2887 152.613 30.3025 152.611 30.3159C152.609 30.3302 152.603 30.3437 152.593 30.3546C152.584 30.3655 152.571 30.3734 152.557 30.3773C152.353 30.424 152.145 30.4542 151.936 30.4675C151.886 30.4732 151.835 30.4617 151.791 30.4347C151.782 30.4209 151.776 30.4044 151.776 30.3876C151.776 30.3707 151.782 30.3543 151.791 30.3405L151.775 30.3609ZM155.734 24.1947C155.732 24.2053 155.726 24.2149 155.718 24.2222C155.71 24.2296 155.7 24.2342 155.689 24.2356H154.936C154.924 24.2356 154.912 24.2309 154.904 24.2224C154.895 24.214 154.89 24.2025 154.89 24.1906V22.9614C154.893 22.9319 154.902 22.9034 154.917 22.8778C154.932 22.8523 154.952 22.8305 154.977 22.8139C154.987 22.8063 154.994 22.796 154.998 22.7843C155.001 22.7726 155.001 22.7601 154.998 22.7484C154.994 22.7365 154.986 22.7262 154.975 22.7188C154.965 22.7115 154.953 22.7075 154.94 22.7074H154.158C154.146 22.7078 154.134 22.7119 154.124 22.7193C154.115 22.7266 154.108 22.7368 154.104 22.7484C154.097 22.758 154.094 22.7694 154.094 22.7811C154.094 22.7929 154.097 22.8043 154.104 22.8139C154.13 22.8295 154.152 22.8511 154.168 22.8767C154.184 22.9024 154.193 22.9314 154.195 22.9614V24.1906C154.195 24.2025 154.19 24.214 154.182 24.2224C154.173 24.2309 154.162 24.2356 154.15 24.2356H153.057C153.045 24.2356 153.034 24.2309 153.025 24.2224C153.017 24.214 153.012 24.2025 153.012 24.1906V22.9614C153.014 22.9314 153.024 22.9024 153.039 22.8767C153.055 22.8511 153.077 22.8295 153.103 22.8139C153.11 22.8046 153.114 22.793 153.114 22.7811C153.114 22.7693 153.11 22.7577 153.103 22.7484C153.099 22.7368 153.092 22.7266 153.083 22.7193C153.073 22.7119 153.061 22.7078 153.049 22.7074H152.267C152.254 22.7075 152.242 22.7115 152.232 22.7188C152.221 22.7262 152.214 22.7365 152.209 22.7484C152.206 22.7601 152.206 22.7726 152.21 22.7843C152.213 22.796 152.22 22.8063 152.23 22.8139C152.255 22.8305 152.275 22.8523 152.29 22.8778C152.305 22.9034 152.315 22.9319 152.317 22.9614V24.9158C152.318 24.9249 152.316 24.9341 152.312 24.9422C152.307 24.9502 152.3 24.9567 152.292 24.9608C152.284 24.9648 152.274 24.9669 152.265 24.9669C152.256 24.9669 152.247 24.9648 152.238 24.9608L151.734 24.4979C151.731 24.4921 151.729 24.4858 151.729 24.4794C151.729 24.473 151.731 24.4667 151.734 24.461V21.1054C151.733 21.0959 151.736 21.0866 151.741 21.0786C151.746 21.0706 151.754 21.0643 151.762 21.0603C151.771 21.0552 151.78 21.0525 151.789 21.0525C151.799 21.0525 151.808 21.0552 151.816 21.0603L152.3 21.6462C152.318 21.6627 152.331 21.6834 152.338 21.7064C152.346 21.7294 152.347 21.7538 152.342 21.7773C152.337 21.786 152.334 21.7959 152.334 21.806C152.334 21.8161 152.337 21.826 152.342 21.8347C152.347 21.8426 152.355 21.849 152.363 21.8533C152.372 21.8575 152.382 21.8596 152.391 21.8593H153.219C153.233 21.8601 153.246 21.8561 153.257 21.8479C153.268 21.8397 153.276 21.8278 153.279 21.8145C153.282 21.8011 153.28 21.7872 153.274 21.7751C153.267 21.763 153.256 21.7537 153.244 21.7486C153.172 21.7062 153.109 21.6489 153.062 21.5807L152.395 20.7612C152.389 20.7529 152.386 20.7428 152.386 20.7325C152.386 20.7223 152.389 20.7122 152.395 20.7039L152.9 20.0975C152.95 20.0301 153.013 19.9742 153.086 19.9336C153.098 19.9272 153.107 19.9172 153.112 19.9053C153.118 19.8934 153.119 19.88 153.117 19.8672C153.114 19.8544 153.107 19.8428 153.097 19.8341C153.087 19.8254 153.075 19.8201 153.062 19.8189H152.325C152.315 19.8186 152.305 19.8209 152.297 19.8255C152.288 19.83 152.281 19.8367 152.275 19.845C152.27 19.8532 152.267 19.8626 152.266 19.8724C152.265 19.8822 152.267 19.892 152.271 19.9008C152.28 19.9165 152.285 19.9341 152.285 19.952C152.285 19.9699 152.28 19.9875 152.271 20.0032L151.808 20.5728C151.8 20.5784 151.791 20.5815 151.781 20.5815C151.771 20.5815 151.762 20.5784 151.754 20.5728C151.745 20.5701 151.738 20.5646 151.733 20.5572C151.727 20.5497 151.725 20.5408 151.725 20.5318V19.7123C151.715 19.5861 151.736 19.4593 151.787 19.3429C151.837 19.2265 151.915 19.1241 152.015 19.0445C152.181 18.9514 152.364 18.8942 152.554 18.8765C152.744 18.8589 152.935 18.8812 153.115 18.9421C154.512 19.3727 155.702 20.2953 156.458 21.5356C156.462 21.5424 156.464 21.5502 156.464 21.5581C156.464 21.566 156.462 21.5738 156.458 21.5807C156.014 22.3867 155.752 23.2785 155.689 24.1947H155.734ZM154.141 29.7914C154.015 29.8608 153.872 29.8975 153.728 29.898C153.314 29.898 152.648 29.2178 152.391 28.8532C151.845 28.0747 151.684 27.5789 151.684 25.8172V25.5181C151.684 25.5092 151.687 25.5005 151.692 25.4932C151.697 25.4859 151.704 25.4803 151.713 25.4771H151.734C151.738 25.4752 151.743 25.4742 151.748 25.4742C151.753 25.4742 151.758 25.4752 151.762 25.4771L152.271 25.936C152.276 25.9465 152.276 25.9582 152.271 25.9688V26.1736C152.269 26.203 152.26 26.2315 152.245 26.257C152.23 26.2825 152.209 26.3044 152.184 26.3211C152.175 26.3288 152.168 26.3391 152.164 26.3508C152.16 26.3624 152.16 26.3749 152.164 26.3867C152.168 26.3986 152.176 26.4089 152.186 26.4162C152.197 26.4235 152.209 26.4275 152.222 26.4276H153.004C153.016 26.4273 153.028 26.4231 153.037 26.4158C153.047 26.4084 153.054 26.3982 153.057 26.3867C153.065 26.3773 153.069 26.3658 153.069 26.3539C153.069 26.342 153.065 26.3305 153.057 26.3211C153.032 26.305 153.01 26.2834 152.995 26.2578C152.979 26.2322 152.969 26.2034 152.966 26.1736V24.9445C152.966 24.9325 152.971 24.921 152.98 24.9126C152.988 24.9041 153 24.8994 153.012 24.8994H154.141C154.153 24.8994 154.165 24.9041 154.174 24.9126C154.182 24.921 154.187 24.9325 154.187 24.9445V26.1736C154.184 26.2034 154.174 26.2322 154.159 26.2578C154.143 26.2834 154.121 26.305 154.096 26.3211C154.089 26.3307 154.085 26.3422 154.085 26.3539C154.085 26.3656 154.089 26.377 154.096 26.3867C154.099 26.3982 154.106 26.4084 154.116 26.4158C154.126 26.4231 154.138 26.4273 154.15 26.4276H154.932C154.944 26.4275 154.957 26.4235 154.967 26.4162C154.977 26.4089 154.985 26.3986 154.99 26.3867C154.993 26.3749 154.993 26.3624 154.989 26.3508C154.986 26.3391 154.979 26.3288 154.969 26.3211C154.944 26.3044 154.924 26.2825 154.909 26.257C154.894 26.2315 154.885 26.203 154.882 26.1736V24.9445C154.882 24.9325 154.887 24.921 154.895 24.9126C154.904 24.9041 154.915 24.8994 154.927 24.8994H155.672C155.684 24.8994 155.696 24.9041 155.704 24.9126C155.713 24.921 155.718 24.9325 155.718 24.9445C155.758 25.8813 156.006 26.7977 156.446 27.6281C156.45 27.635 156.452 27.6427 156.452 27.6506C156.452 27.6586 156.45 27.6663 156.446 27.6732C155.881 28.5688 155.085 29.2998 154.141 29.7914V29.7914ZM151.659 29.1113L151.336 29.7218C151.329 29.7339 151.319 29.7438 151.307 29.7503C151.294 29.7568 151.28 29.7597 151.266 29.7587V29.7587C151.253 29.7594 151.239 29.7564 151.227 29.7498C151.216 29.7433 151.206 29.7336 151.2 29.7218L150.881 29.1113C150.875 29.1007 150.872 29.0887 150.872 29.0765C150.872 29.0642 150.875 29.0522 150.881 29.0416L151.204 28.4312C151.211 28.4192 151.221 28.4093 151.233 28.4024C151.245 28.3955 151.258 28.3919 151.272 28.3919C151.286 28.3919 151.3 28.3955 151.312 28.4024C151.324 28.4093 151.334 28.4192 151.34 28.4312L151.663 29.0416C151.669 29.0522 151.673 29.0642 151.673 29.0765C151.673 29.0887 151.669 29.1007 151.663 29.1113" fill="black"/>
<path d="M0 29.6641L1.53079 27.8613C2.91677 29.0495 4.32344 29.7256 6.10659 29.7256C7.67875 29.7256 8.67169 28.9881 8.67169 27.9228V27.8818C8.67169 26.8575 8.09247 26.3044 5.40325 25.6898C2.31686 24.9523 0.579213 24.051 0.579213 21.4083V21.3673C0.579213 18.909 2.64784 17.2087 5.54392 17.2087C7.45632 17.1704 9.31967 17.8097 10.7982 19.0114L9.4164 20.9166C8.30439 20.0125 6.92376 19.4944 5.486 19.4416C3.99245 19.4416 3.12363 20.1996 3.12363 21.142V21.1829C3.12363 22.2892 3.78559 22.7808 6.58237 23.4364C9.64394 24.1739 11.2161 25.2596 11.2161 27.636V27.677C11.2161 30.3606 9.08542 31.9585 6.04454 31.9585C3.81081 31.9695 1.65407 31.1508 0 29.6641V29.6641Z" fill="black"/>
<path d="M160.539 17.4141H166.253C169.645 17.4141 171.755 19.3193 171.755 22.2078V22.2487C171.755 25.465 169.149 27.1654 165.963 27.1654H163.088V31.7542H160.543L160.539 17.4141ZM166.046 24.8709C167.97 24.8709 169.165 23.8057 169.165 22.3102V22.2692C169.165 20.5894 167.945 19.7085 166.046 19.7085H163.083V24.8709H166.046Z" fill="black"/>
<path d="M16.0639 17.4141H13.5195V31.7542H16.0639V17.4141Z" fill="black"/>
<path d="M140.729 23.3223H14.791V25.842H140.729V23.3223Z" fill="black"/>
<path d="M142.002 17.4141H139.457V31.7542H142.002V17.4141Z" fill="black"/>
<path d="M0.960938 0.206055H7.45644C9.11134 0.206055 10.4146 0.656746 11.242 1.47618C11.5586 1.78611 11.8081 2.15667 11.9752 2.56524C12.1424 2.97381 12.2237 3.41182 12.2143 3.85255V3.89353C12.2143 5.61435 11.2213 6.53621 10.1457 7.08933C11.8419 7.66294 13.021 8.62578 13.021 10.5719V10.6129C13.021 13.1737 10.8904 14.5462 7.6633 14.5462H0.960938V0.206055ZM9.66986 4.26227C9.66986 3.13555 8.75967 2.43902 7.12545 2.43902H3.46397V6.24941H6.93928C8.5735 6.24941 9.66986 5.61435 9.66986 4.30324V4.26227ZM7.4978 8.35946H3.46397V12.3133H7.68398C9.40095 12.3133 10.4766 11.6372 10.4766 10.3466V10.3056C10.4766 9.09696 9.50437 8.37995 7.4978 8.37995V8.35946Z" fill="black"/>
<path d="M15.3789 0.206055H26.115V2.47999H17.9233V6.20844H25.1842V8.46189H17.9233V12.3132H26.2185V14.5667H15.3789V0.206055Z" fill="black"/>
<path d="M28.6406 0.206055H30.9989L38.7562 10.1213V0.206055H41.2593V14.5462H39.1244L31.1395 4.34422V14.5462H28.6572L28.6406 0.206055Z" fill="black"/>
<path d="M49.2805 0.103516H51.6387L58.0101 14.5461H55.3209L53.8521 11.084H46.9884L45.499 14.5461H42.8926L49.2805 0.103516ZM52.9213 8.85101L50.4182 3.11495L47.9359 8.85101H52.9213Z" fill="black"/>
<path d="M59.6652 0.206055H62.2096V7.41711L69.0775 0.206055H72.2425L66.2021 6.37232L72.5114 14.5667H69.4085L64.4438 8.11363L62.189 10.4081V14.5462H59.6445L59.6652 0.206055Z" fill="black"/>
<path d="M74.0957 0.206055H76.6401V14.5462H74.0957V0.206055Z" fill="black"/>
<path d="M85.6777 0.206055H88.3876L92.7938 6.9869L97.2 0.206055H99.9099V14.5462H97.3655V4.26227L92.8145 11.0226H92.7318L88.2015 4.30324V14.5462H85.6984L85.6777 0.206055Z" fill="black"/>
<path d="M102.447 8.46189V0.206055H104.992V8.35946C104.992 11.0226 106.378 12.4362 108.653 12.4362C110.929 12.4362 112.294 11.1046 112.294 8.46189V0.206055H114.838V8.33898C114.838 12.6205 112.397 14.7716 108.632 14.7716C104.868 14.7716 102.447 12.6205 102.447 8.46189Z" fill="black"/>
<path d="M116.492 12.4564L118.023 10.6536C119.409 11.8418 120.816 12.5178 122.599 12.5178C124.171 12.5178 125.164 11.7803 125.164 10.715V10.6741C125.164 9.64978 124.585 9.09666 121.895 8.48208C118.809 7.74458 117.071 6.8432 117.071 4.20051V4.15954C117.071 1.70123 119.14 0.000894041 122.036 0.000894041C123.934 -0.0272841 125.781 0.611418 127.249 1.80366L125.9 3.70885C124.593 2.74601 123.294 2.23386 121.97 2.23386C120.476 2.23386 119.608 2.99184 119.608 3.9342V3.97517C119.608 5.08141 120.27 5.57307 123.062 6.22862C126.128 6.96612 127.7 8.05187 127.7 10.4282V10.4692C127.7 13.1529 125.569 14.7508 122.524 14.7508C120.295 14.7594 118.143 13.9409 116.492 12.4564V12.4564Z" fill="black"/>
<path d="M129.294 0.206055H140.03V2.47999H131.839V6.20844H139.099V8.46189H131.839V12.3132H140.113V14.5667H129.273L129.294 0.206055Z" fill="black"/>
<path d="M142.195 8.46189V0.206055H144.74V8.35946C144.74 11.0226 146.126 12.4362 148.401 12.4362C150.677 12.4362 152.042 11.1046 152.042 8.46189V0.206055H154.586V8.33898C154.586 12.6205 152.145 14.7716 148.36 14.7716C144.574 14.7716 142.195 12.6205 142.195 8.46189Z" fill="black"/>
<path d="M157.11 0.206055H159.82L164.226 6.9869L168.624 0.206055H171.338V14.5462H168.793V4.26227L164.218 11.0226H164.135L159.605 4.30324V14.5462H157.102L157.11 0.206055Z" fill="black"/>
</svg>
