<svg width="24" height="18" xmlns="http://www.w3.org/2000/svg" fill="none">

 <g>
  <title>Layer 1</title>
  <path id="svg_1" fill="#0A0A0A" d="m2,0.57843c-0.27614,0 -0.5,0.22386 -0.5,0.5c0,0.27614 0.22386,0.5 0.5,0.5l0,-1zm4,0.5l0.49029,-0.09806c-0.04674,-0.23371 -0.25195,-0.40194 -0.49029,-0.40194l0,0.5zm2,10l-0.49029,0.0981c0.04674,0.2337 0.25195,0.4019 0.49029,0.4019l0,-0.5zm10,0l0,0.5c0.2084,0 0.395,-0.1293 0.4682,-0.3244l-0.4682,-0.1756zm3,-8l0.4682,0.17556c0.0575,-0.15355 0.0362,-0.32557 -0.0572,-0.46036c-0.0934,-0.13478 -0.247,-0.2152 -0.411,-0.2152l0,0.5zm-19,-1.5l4,0l0,-1l-4,0l0,1zm6,10l10,0l0,-1l-10,0l0,1zm10.4682,-0.3244l3,-8.00004l-0.9364,-0.35112l-3,7.99996l0.9364,0.3512zm-12.95849,-10.07754l0.4,2l0.98058,-0.19612l-0.4,-2l-0.98058,0.19612zm0.4,2l1.6,8.00004l0.98058,-0.1962l-1.6,-7.99996l-0.98058,0.19612zm0.49029,0.40194l14.6,0l0,-1l-14.6,0l0,1zm13.1,11.5c0,0.8284 -0.6716,1.5 -1.5,1.5l0,1c1.3807,0 2.5,-1.1193 2.5,-2.5l-1,0zm-1.5,1.5c-0.8284,0 -1.5,-0.6716 -1.5,-1.5l-1,0c0,1.3807 1.1193,2.5 2.5,2.5l0,-1zm-1.5,-1.5c0,-0.8284 0.6716,-1.5 1.5,-1.5l0,-1c-1.3807,0 -2.5,1.1193 -2.5,2.5l1,0zm1.5,-1.5c0.8284,0 1.5,0.6716 1.5,1.5l1,0c0,-1.3807 -1.1193,-2.5 -2.5,-2.5l0,1zm-8.5,1.5c0,0.8284 -0.67157,1.5 -1.5,1.5l0,1c1.38071,0 2.5,-1.1193 2.5,-2.5l-1,0zm-1.5,1.5c-0.82843,0 -1.5,-0.6716 -1.5,-1.5l-1,0c0,1.3807 1.11929,2.5 2.5,2.5l0,-1zm-1.5,-1.5c0,-0.8284 0.67157,-1.5 1.5,-1.5l0,-1c-1.38071,0 -2.5,1.1193 -2.5,2.5l1,0zm1.5,-1.5c0.82843,0 1.5,0.6716 1.5,1.5l1,0c0,-1.3807 -1.11929,-2.5 -2.5,-2.5l0,1z"/>
  <path id="svg_2" stroke-linejoin="round" stroke-linecap="round" stroke="#0A0A0A" fill="black" d="m18.0004,11.86275l-10.00001,0l-1.6,-8l14.60001,0l-3,8z"/>
 </g>
</svg>