<svg width="400" height="44" viewBox="0 0 400 44" fill="none" xmlns="http://www.w3.org/2000/svg">
<path d="M9.48 18.08V6.28H11.32C14.28 6.28 17 8.04 17 12.16C17 15.44 15.24 18.08 11.16 18.08H9.48ZM9.48 33.24V18.84H12.04C17.56 18.84 18.76 23.2 18.76 25.84C18.76 32.32 15.12 33.24 12.04 33.24H9.48ZM3.68 6.28V33.24H1.49012e-08V34H6.12C8.28 34 10.84 34.04 13.12 34.08C17.88 34.08 24.92 32.76 24.92 26.16C24.92 20.52 19 18.4 14.28 18.4V18.24C17.8 18.16 22.92 16.52 22.92 12C22.92 7.08 17.92 5.4 13.24 5.4C11 5.4 8.28 5.52 6.04 5.52H1.49012e-08V6.28H3.68ZM44.2144 29.92C43.6944 31.32 42.0944 33.76 38.5344 33.76C34.7344 33.76 33.5744 29.72 33.5744 25.2C33.5744 24.32 33.6144 23.24 33.6944 22.32H45.3344C44.8944 18.52 41.6944 15.88 37.4544 15.88C31.5344 15.88 28.1344 20.56 28.1344 25.16C28.1344 30.92 32.4544 34.52 38.0144 34.52C42.2144 34.52 44.1744 32.12 44.8944 30.16L44.2144 29.92ZM37.1344 16.56C39.3744 16.56 39.8944 19.16 39.9344 21.56H33.7744C34.0544 19.36 34.8544 16.56 37.1344 16.56ZM54.2825 15.68L47.1225 17.8V18.56L49.4025 18.12V33.24H46.7625V34H56.8025V33.24H54.2825V21.2C56.1625 18.68 58.3225 17.2 59.8025 17.2C60.8825 17.2 61.6425 18.04 61.6425 19.84V33.24H59.1625V34H69.2025V33.24H66.5225V21.6C66.5225 18.08 64.8825 15.92 61.3625 15.92C58.6825 15.92 56.6825 17.24 54.2825 20.04V15.68ZM88.705 31.28C88.025 32.72 87.225 33.4 86.665 33.4C86.225 33.4 85.905 33.08 85.905 32.2V22.44C85.905 17.92 83.305 15.88 79.105 15.88C75.345 15.88 71.945 17.32 71.945 20.32C71.945 21.96 73.345 22.64 74.905 22.64C75.465 22.64 76.025 22.56 76.545 22.4C76.345 21.84 76.225 21.08 76.225 20.28C76.225 18.4 76.745 16.56 78.665 16.56C80.625 16.56 81.025 18.28 81.025 19.68V24.12C75.985 24.12 71.025 25.24 71.025 30.16C71.025 33.24 73.465 34.6 76.265 34.6C77.865 34.6 80.265 33.96 81.305 31.68H81.385C81.665 33.28 82.665 34.56 84.985 34.56C86.265 34.56 88.265 34.04 89.265 31.56L88.705 31.28ZM81.025 24.8V29.12C81.025 32 79.665 33.12 78.265 33.12C76.425 33.12 75.945 31.28 75.945 30.12C75.945 25.32 79.065 24.96 81.025 24.8ZM98.5794 0.679997L91.4194 2.8V3.56L93.6994 3.12V33.24H91.0594V34H101.099V33.24H98.5794V30.08L101.539 26.24L105.419 33.24H103.459V34H113.179V33.24H111.019L104.739 22.08L108.499 17.2H111.459V16.44H104.139V17.2H107.459L98.5794 28.72V0.679997ZM116.815 8.24C116.815 9.8 118.095 11.08 119.655 11.08C121.215 11.08 122.495 9.8 122.495 8.24C122.495 6.68 121.215 5.4 119.655 5.4C118.095 5.4 116.815 6.68 116.815 8.24ZM122.095 15.68L114.935 17.8V18.56L117.215 18.12V33.24H114.575V34H124.735V33.24H122.095V15.68ZM154.849 24.8L162.729 6.28V33.24H159.169V34H172.289V33.24H168.609V6.28H172.289V5.52H162.169L155.289 21.8L148.369 5.52H137.969V6.28H141.529V33.24H137.969V34H145.969V33.24H142.289V6.28L150.249 24.8H154.849ZM181.657 30.6V15.68L174.497 17.8V18.56L176.777 18.08V28.84C176.777 32.36 178.417 34.52 181.937 34.52C184.617 34.52 186.377 33.24 188.577 30.4V34H196.097V33.24H193.457V15.68L186.297 17.8V18.56L188.577 18.08V29.24C186.697 31.76 184.977 33.24 183.497 33.24C182.417 33.24 181.657 32.4 181.657 30.6ZM205.921 33.8C202.401 33.8 200.401 30.96 199.721 27.08H199.081V34.6H199.681L200.721 32.84C201.601 33.56 203.281 34.48 206.001 34.48C210.281 34.48 212.881 31.96 212.881 28.52C212.881 25.28 210.841 23.4 206.241 22.24C203.041 21.44 201.201 20.76 201.201 19.16C201.201 17.44 203.121 16.52 205.201 16.52C208.001 16.52 210.121 18.76 211.041 22.04H211.681V15.52H211.121L209.921 17.32C209.281 16.76 207.721 15.88 205.281 15.88C201.881 15.88 199.241 17.84 199.241 21.2C199.241 24.8 201.681 26.2 205.361 26.96C209.121 27.76 210.601 28.64 210.601 30.84C210.601 32.12 209.321 33.8 205.921 33.8ZM231.949 29.92C231.429 31.32 229.829 33.76 226.269 33.76C222.469 33.76 221.309 29.72 221.309 25.2C221.309 24.32 221.349 23.24 221.429 22.32H233.069C232.629 18.52 229.429 15.88 225.189 15.88C219.269 15.88 215.869 20.56 215.869 25.16C215.869 30.92 220.189 34.52 225.749 34.52C229.949 34.52 231.909 32.12 232.629 30.16L231.949 29.92ZM224.869 16.56C227.109 16.56 227.629 19.16 227.669 21.56H221.509C221.789 19.36 222.589 16.56 224.869 16.56ZM242.438 30.6V15.68L235.278 17.8V18.56L237.558 18.08V28.84C237.558 32.36 239.198 34.52 242.718 34.52C245.398 34.52 247.158 33.24 249.358 30.4V34H256.878V33.24H254.238V15.68L247.078 17.8V18.56L249.358 18.08V29.24C247.478 31.76 245.758 33.24 244.278 33.24C243.198 33.24 242.438 32.4 242.438 30.6ZM265.761 15.68L258.601 17.8V18.52L260.881 18.08V33.24H258.481V34H267.881V33.24H265.761V21.2C267.401 18.6 269.081 17.28 270.561 17.28C271.641 17.28 272.521 17.88 272.521 19.68V33.24H270.081V34H279.881V33.24H277.401V21.2C279.041 18.6 280.721 17.28 282.201 17.28C283.281 17.28 284.161 17.88 284.161 19.68V33.24H281.881V34H291.441V33.24H289.041V21.6C289.041 18.08 287.281 15.92 283.761 15.92C281.321 15.92 279.361 17.2 277.281 20.16C276.841 17.52 275.121 15.92 272.121 15.92C269.681 15.92 267.721 17.2 265.761 20V15.68ZM316.048 33.64C310.448 33.64 306.848 31.72 305.888 25.28H305.248V33.96H305.928L307.328 31.6C308.888 33.04 311.848 34.4 316.208 34.4C323.008 34.4 327.168 30.68 327.168 25.12C327.168 19.84 323.608 17.44 316.368 15.36C311.048 13.84 308.208 12.8 308.208 10.24C308.208 7.44 311.608 5.6 314.928 5.6C319.368 5.6 323.448 7.64 324.608 13.88H325.248V5.48H324.568L323.048 8.08C321.608 6.64 318.928 4.84 315.048 4.84C309.648 4.84 305.408 8.08 305.408 13.52C305.408 18.84 310.008 20.12 315.648 21.76C321.608 23.48 323.848 24.48 323.848 28.08C323.848 30.28 321.488 33.64 316.048 33.64ZM337.876 0.719999L330.716 2.84V3.6L332.996 3.16V33.24H330.356V34H340.396V33.24H337.876V21.2C339.756 18.68 341.916 17.2 343.396 17.2C344.476 17.2 345.236 18.04 345.236 19.84V33.24H342.756V34H352.796V33.24H350.116V21.6C350.116 18.08 348.476 15.92 344.956 15.92C342.276 15.92 340.276 17.24 337.876 20.04V0.719999ZM365.16 33.84C361.36 33.84 360.8 28.88 360.8 25.2C360.8 22.16 361.48 16.6 365.16 16.6C368.84 16.6 369.52 22.2 369.52 25.2C369.52 28.32 369 33.84 365.16 33.84ZM355.4 25.2C355.4 30.2 358.96 34.52 365.16 34.52C371.16 34.52 374.92 30.08 374.92 25.08C374.92 20.12 371.6 15.88 365.16 15.88C359.12 15.88 355.4 20.28 355.4 25.2ZM379.905 18.12L379.945 43H377.305V43.76H387.545V43H384.825V32.84C386.505 34.2 387.985 34.56 390.145 34.56C396.625 34.56 399.025 29.12 399.025 25.08C399.025 20.32 396.305 15.92 390.305 15.92C387.905 15.92 385.665 17.28 384.745 19.16V15.68L377.625 17.8V18.56L379.905 18.12ZM384.865 20.56C385.625 18.72 386.825 17.04 389.105 17.04C392.105 17.04 393.625 19.52 393.625 24.76C393.625 31.2 391.505 33.72 388.785 33.72C387.345 33.72 385.905 33 384.865 31.88V20.56Z" fill="black"/>
</svg>
