<svg width="27" height="27" viewBox="0 0 27 27" fill="none" xmlns="http://www.w3.org/2000/svg">
<rect width="27" height="27" rx="5" fill="white"/>
<path fill-rule="evenodd" clip-rule="evenodd" d="M4.68701 9.67383C5.07876 8.81302 5.63029 8.06046 6.27977 7.38006C7.74882 5.844 9.52714 4.85433 11.6302 4.51928C14.5734 4.05022 17.2074 4.74608 19.4857 6.70481C19.6301 6.82852 19.6661 6.90068 19.5063 7.05532C18.7022 7.84397 17.9136 8.64292 17.1146 9.43672C17.0322 9.5192 16.9755 9.61713 16.8311 9.48311C14.826 7.64809 11.5529 7.66871 9.42404 9.64806C8.6921 10.3285 8.17149 11.1429 7.83129 12.0759C7.77974 12.0449 7.7282 12.014 7.68181 11.9779C6.68698 11.215 5.68699 10.4419 4.68701 9.67383Z" fill="#D7282A"/>
<path fill-rule="evenodd" clip-rule="evenodd" d="M7.81024 15.8335C8.09889 16.5654 8.45456 17.251 8.98547 17.8386C10.336 19.3283 12.006 19.9726 14.0112 19.7664C14.9441 19.6685 15.7895 19.3541 16.5833 18.8695C16.6606 18.9365 16.7328 19.0087 16.8101 19.0706C17.7379 19.7973 18.6657 20.519 19.5935 21.2406C18.5678 22.2148 17.3616 22.8591 16.0008 23.2045C12.7998 24.0189 9.84113 23.5035 7.21746 21.4313C6.12985 20.5757 5.27935 19.519 4.67627 18.2664C5.72264 17.4572 6.76386 16.6428 7.81024 15.8335Z" fill="#45AC43"/>
<path fill-rule="evenodd" clip-rule="evenodd" d="M19.5988 21.2407C18.671 20.5191 17.7432 19.7923 16.8154 19.0707C16.7329 19.0088 16.6607 18.9367 16.5886 18.8696C17.2174 18.3903 17.7432 17.8233 18.0886 17.1016C18.2277 16.813 18.3205 16.514 18.4133 16.2099C18.4751 15.9986 18.4545 15.9161 18.1968 15.9212C16.6504 15.9367 15.1041 15.9264 13.5577 15.9264C13.2278 15.9264 13.2278 15.9264 13.2278 15.5862C13.2278 14.5398 13.233 13.4883 13.2227 12.4419C13.2227 12.2409 13.2587 12.1636 13.4855 12.1636C16.336 12.1739 19.1865 12.1687 22.0369 12.1687C22.1916 12.1687 22.2895 12.179 22.3153 12.3646C22.6709 14.8594 22.3874 17.2408 21.0782 19.4418C20.6813 20.117 20.2019 20.7304 19.5988 21.2407Z" fill="#5D7FBE"/>
<path fill-rule="evenodd" clip-rule="evenodd" d="M7.8103 15.8335C6.76393 16.6428 5.72271 17.4572 4.67634 18.2665C4.16604 17.318 3.87223 16.2974 3.73305 15.2356C3.49594 13.3954 3.75883 11.6274 4.53716 9.94187C4.5784 9.84908 4.6351 9.76146 4.68149 9.67383C5.68147 10.4419 6.68146 11.215 7.68144 11.9831C7.72783 12.0191 7.77938 12.0501 7.83092 12.081C7.4134 13.3284 7.43402 14.581 7.8103 15.8335Z" fill="#F4C300"/>
</svg>
