<svg width="186" height="27" viewBox="0 0 186 27" fill="none" xmlns="http://www.w3.org/2000/svg">
<mask id="mask0_3068_624" style="mask-type:alpha" maskUnits="userSpaceOnUse" x="0" y="0" width="18" height="27">
<path d="M0 0.0876465H17.0331V26.9833H0V0.0876465Z" fill="white"/>
</mask>
<g mask="url(#mask0_3068_624)">
<path fill-rule="evenodd" clip-rule="evenodd" d="M16.5608 17.3869C16.2411 16.6328 15.7745 15.9481 15.1552 15.3532C14.5162 14.7422 13.7609 14.1752 12.8672 13.6915C11.9679 13.1955 10.9388 12.7239 9.76486 12.2722C8.88257 11.9312 8.01163 11.593 7.16597 11.291C6.32059 10.9653 5.55132 10.6104 4.90387 10.1851C4.24478 9.75949 3.70751 9.26458 3.28609 8.65333C2.87036 8.05877 2.66676 7.31697 2.66676 6.42179C2.66676 5.52912 2.80533 4.76004 3.10237 4.08894C3.38776 3.44177 3.79781 2.88757 4.33224 2.44806C4.86979 2.01717 5.49197 1.69707 6.21609 1.4961C6.93965 1.27982 7.73164 1.17015 8.58866 1.17015C9.02711 1.17015 9.51071 1.19938 10.0508 1.2673C10.6051 1.32714 11.1677 1.4254 11.7643 1.55149C12.3584 1.66784 12.9521 1.84821 13.5462 2.0798C13.7157 2.14911 13.877 2.22204 14.0409 2.29552L13.7356 6.01178H14.0749L15.735 0.374626H15.3616L14.3635 1.24781C13.7495 0.979203 13.1077 0.751513 12.3754 0.586451C11.066 0.256884 9.80745 0.0876465 8.58866 0.0876465C7.49708 0.0876465 6.45917 0.256884 5.46073 0.614564C4.44838 0.954152 3.57745 1.43625 2.81385 2.06561C2.0531 2.68605 1.43944 3.41143 0.984238 4.26346C0.53727 5.1038 0.305551 6.02264 0.305551 7.01941C0.305551 7.78571 0.418571 8.4955 0.664489 9.10231C0.90785 9.71607 1.233 10.2833 1.64873 10.7643C2.07269 11.2492 2.56765 11.6734 3.13048 12.0615C3.70751 12.4453 4.30413 12.7988 4.9405 13.0969C6.1593 13.6667 7.38974 14.1446 8.64801 14.5577C9.90372 14.9697 11.0828 15.5503 12.2056 16.2902C12.9805 16.814 13.5743 17.4422 13.9702 18.1807C14.3575 18.9183 14.5529 19.6721 14.5529 20.4788C14.5529 21.2312 14.3859 21.9593 14.0465 22.6079C13.7015 23.2756 13.2264 23.8287 12.6355 24.3267C12.036 24.8105 11.3517 25.1929 10.5625 25.4671C9.77906 25.7346 8.92516 25.8763 8.02583 25.8763C7.51383 25.8763 6.95384 25.8443 6.34587 25.7775C5.73789 25.7207 5.11287 25.5915 4.49666 25.3936C3.84892 25.1929 3.20971 24.9226 2.56765 24.5967C2.2709 24.4416 1.99091 24.2574 1.71631 24.0561L1.70808 19.4422H1.36873L0 23.9896L0.0170382 23.9991L0 24.0158C0.610818 24.5967 1.27531 25.0927 1.99375 25.4766C2.72043 25.8607 3.45307 26.1741 4.17123 26.4029C4.91494 26.6286 5.61635 26.7739 6.27232 26.8547C6.93141 26.9515 7.51383 27 8.02583 27C9.0609 27 10.1158 26.8394 11.179 26.5424C12.2422 26.2445 13.204 25.7886 14.0835 25.1929C14.9544 24.5967 15.67 23.8579 16.213 22.9764C16.7613 22.099 17.0331 21.0764 17.0331 19.9104C17.0331 18.9609 16.8718 18.1211 16.5608 17.3869Z" fill="white"/>
</g>
<path fill-rule="evenodd" clip-rule="evenodd" d="M134.42 0.686653L137.989 1.62609V23.0774L119.101 0.529663L119.023 0.542467H115.787L117.967 2.97887V25.604L116.395 26.4569L116.35 26.6286H122.082L122.113 26.4569L119.067 25.535V4.20695L120.673 6.00176L137.919 26.6286H139.183V1.62609L140.707 0.772106L140.792 0.542467H134.587L134.42 0.686653Z" fill="white"/>
<path fill-rule="evenodd" clip-rule="evenodd" d="M89.9331 15.4698L95.2552 3.881L100.508 15.4698H89.9331ZM95.2552 0.529663L83.2874 26.6286H88.16L88.2463 26.4569L85.301 25.5517L89.4327 16.5576H101.002L105.566 26.6286H108.035L96.0558 0.529663H95.2552Z" fill="white"/>
<path fill-rule="evenodd" clip-rule="evenodd" d="M72.459 21.5891C72.2721 22.3237 71.9808 22.992 71.6062 23.5623C71.23 24.1257 70.7506 24.5967 70.185 24.9649C69.6054 25.3232 68.9381 25.5074 68.1872 25.5074H61.2331V13.0259H68.1872C68.8106 13.0259 69.4018 13.1954 69.9689 13.564C70.5257 13.9158 71.0107 14.3873 71.4168 14.9697C71.8226 15.5667 72.1407 16.2047 72.3883 16.9724C72.6243 17.7081 72.7432 18.4777 72.7432 19.2746C72.7432 20.0685 72.6484 20.8476 72.459 21.5891ZM61.2331 1.62609H66.9273C67.6145 1.62609 68.2435 1.73548 68.8106 1.99323C69.389 2.23066 69.8825 2.58556 70.294 3.07323C70.7154 3.54169 71.0391 4.08893 71.2569 4.74779C71.489 5.3866 71.6062 6.09473 71.6062 6.87494C71.6062 8.46906 71.2146 9.70103 70.4226 10.5951C69.6409 11.4919 68.614 11.9465 67.3487 11.9465H61.2331V1.62609ZM73.7936 14.9872C73.3722 14.3737 72.8801 13.8176 72.3076 13.3536C71.7363 12.8795 71.1101 12.5288 70.4226 12.2997C71.5696 11.7344 72.4391 11.0246 73.0528 10.174C73.6622 9.31997 73.9663 8.20991 73.9663 6.87494C73.9663 5.92577 73.7936 5.07596 73.4458 4.29575C73.1022 3.5236 72.6484 2.85974 72.0614 2.31751C71.4748 1.73548 70.779 1.30877 69.9532 0.999519C69.1289 0.686653 68.2435 0.529663 67.312 0.529663H56.1271L56.0027 0.729519L58.9438 1.54008V26.6286H68.4474C69.4611 26.6286 70.3803 26.4165 71.2061 26.0024C72.0248 25.5915 72.7347 25.0498 73.3143 24.3584C73.8942 23.6765 74.3423 22.8932 74.6393 22.0133C74.9517 21.1315 75.0945 20.2224 75.0945 19.2746C75.0945 18.5328 74.9858 17.7971 74.7637 17.0456C74.5317 16.2901 74.2051 15.6252 73.7936 14.9872Z" fill="white"/>
<mask id="mask1_3068_624" style="mask-type:alpha" maskUnits="userSpaceOnUse" x="153" y="0" width="33" height="27">
<path d="M153.849 0.0876465H185.881V26.9833H153.849V0.0876465Z" fill="white"/>
</mask>
<g mask="url(#mask1_3068_624)">
<path fill-rule="evenodd" clip-rule="evenodd" d="M153.849 26.6287H156.122V0.54248H153.849V26.6287Z" fill="white"/>
<path fill-rule="evenodd" clip-rule="evenodd" d="M185.409 17.3869C185.09 16.6328 184.623 15.9481 184.004 15.3532C183.364 14.7422 182.61 14.1752 181.716 13.6915C180.817 13.1955 179.787 12.7239 178.614 12.2722C177.731 11.9312 176.86 11.593 176.015 11.291C175.169 10.9653 174.4 10.6104 173.752 10.1851C173.093 9.75949 172.556 9.26458 172.134 8.65333C171.719 8.05877 171.515 7.31697 171.515 6.42179C171.515 5.52912 171.653 4.76004 171.951 4.08894C172.236 3.44177 172.647 2.88757 173.181 2.44806C173.718 2.01717 174.34 1.69707 175.064 1.4961C175.788 1.27982 176.58 1.17015 177.437 1.17015C177.876 1.17015 178.359 1.19938 178.899 1.2673C179.454 1.32714 180.016 1.4254 180.612 1.55149C181.207 1.66784 181.801 1.84821 182.395 2.0798C182.564 2.14911 182.725 2.22204 182.889 2.29552L182.584 6.01178H182.924L184.583 0.374626H184.21L183.21 1.24781C182.597 0.979203 181.955 0.751513 181.224 0.586451C179.914 0.256884 178.656 0.0876465 177.437 0.0876465C176.346 0.0876465 175.308 0.256884 174.309 0.614564C173.297 0.954152 172.426 1.43625 171.662 2.06561C170.902 2.68605 170.288 3.41143 169.832 4.26346C169.385 5.1038 169.154 6.02264 169.154 7.01941C169.154 7.78571 169.267 8.4955 169.513 9.10231C169.756 9.71607 170.081 10.2833 170.497 10.7643C170.921 11.2492 171.416 11.6734 171.979 12.0615C172.556 12.4453 173.153 12.7988 173.789 13.0969C175.008 13.6667 176.238 14.1446 177.496 14.5577C178.752 14.9697 179.931 15.5503 181.054 16.2902C181.829 16.814 182.423 17.4422 182.819 18.1807C183.206 18.9183 183.401 19.6721 183.401 20.4788C183.401 21.2312 183.234 21.9593 182.895 22.6079C182.55 23.2756 182.075 23.8287 181.484 24.3267C180.884 24.8105 180.2 25.1929 179.411 25.4671C178.627 25.7346 177.774 25.8763 176.874 25.8763C176.362 25.8763 175.802 25.8443 175.194 25.7775C174.586 25.7207 173.961 25.5915 173.345 25.3936C172.697 25.1929 172.058 24.9226 171.416 24.5967C171.118 24.4416 170.838 24.2574 170.564 24.0561L170.556 19.4422H170.217L168.848 23.9896L168.864 23.9991L168.848 24.0158C169.459 24.5967 170.124 25.0927 170.842 25.4766C171.569 25.8607 172.301 26.1741 173.019 26.4029C173.763 26.6286 174.465 26.7739 175.121 26.8547C175.78 26.9515 176.362 27 176.874 27C177.909 27 178.964 26.8394 180.027 26.5424C181.091 26.2445 182.052 25.7886 182.932 25.1929C183.803 24.5967 184.518 23.8579 185.061 22.9764C185.61 22.099 185.881 21.0764 185.881 19.9104C185.881 18.9609 185.72 18.1211 185.409 17.3869Z" fill="white"/>
</g>
<path fill-rule="evenodd" clip-rule="evenodd" d="M31.2367 15.4698L36.5602 3.881L41.812 15.4698H31.2367ZM36.5602 0.529663L24.5892 26.6286H29.4664L29.5442 26.4569L26.6046 25.5545L30.7375 16.5576H42.3055L46.8698 26.6286H49.3301L37.3662 0.529663H36.5602Z" fill="white"/>
</svg>
