<svg width="48" height="99" viewBox="0 0 48 99" fill="none" xmlns="http://www.w3.org/2000/svg">
<path d="M47.8788 -1H0V99H47.8788V-1Z" fill="black"/>
<path d="M15.7593 72.9395H15.7183C11.5286 72.9395 8.48569 76.2037 8.48569 80.7067V84.8833C8.48834 85.0902 8.57118 85.288 8.71655 85.4343C8.86193 85.5807 9.05833 85.6641 9.2639 85.6667H22.2546C22.46 85.6641 22.6563 85.5806 22.8014 85.4342C22.9465 85.2878 23.0289 85.0901 23.0311 84.8833V80.7067C23.0311 76.2055 19.9729 72.9395 15.7593 72.9395ZM21.5618 80.7067V84.0999H9.96532V80.7067C9.96532 77.1366 12.4041 74.5458 15.7678 74.5458H15.8071C19.1896 74.539 21.5566 77.0782 21.5566 80.7067H21.5618Z" fill="white"/>
<path d="M17.0758 58.3936H9.28323C9.07364 58.3961 8.87342 58.4755 8.72537 58.6148C8.57731 58.7542 8.49317 58.9423 8.49091 59.1391C8.49362 59.3356 8.57796 59.5234 8.72597 59.6623C8.87397 59.8013 9.07394 59.8805 9.28323 59.883H17.1942C20.3896 59.883 22.1501 61.3856 22.1501 64.1127C22.1501 66.8399 20.306 68.4192 17.0915 68.4192H9.27801C9.06841 68.4218 8.8682 68.5012 8.72014 68.6405C8.57209 68.7798 8.48794 68.968 8.48569 69.1648C8.48839 69.3613 8.57274 69.549 8.72074 69.688C8.86875 69.827 9.06871 69.9062 9.27801 69.9087H17.1942C21.1662 69.9087 23.6372 67.7031 23.6372 64.1519C23.6372 60.6008 21.1244 58.3936 17.0758 58.3936Z" fill="white"/>
<path d="M12.492 54.9296H12.5335C14.8376 54.9296 16.071 53.5522 16.7923 50.1759C17.4358 47.1284 18.2626 46.5596 19.56 46.5596H19.6015C21.1117 46.5596 22.1669 47.8631 22.1669 49.7304C22.1669 51.4893 21.6323 52.8026 20.3834 54.1209L20.3678 54.1406C20.2583 54.2768 20.1977 54.4427 20.1949 54.614C20.1971 54.8116 20.2804 55.0005 20.4271 55.1405C20.5738 55.2806 20.7723 55.3606 20.9802 55.3636C21.0977 55.3629 21.2135 55.337 21.319 55.2878C21.4244 55.2385 21.5168 55.1672 21.5891 55.0792C23.0058 53.4355 23.6372 51.8098 23.6372 49.788C23.6372 47.0051 21.9351 45.0605 19.4977 45.0605H19.458C17.2265 45.0605 15.9793 46.4479 15.2822 49.7009C14.6058 52.8454 13.7565 53.442 12.4262 53.442H12.3864C10.9818 53.442 9.96468 52.1566 9.96468 50.3863C9.93709 49.0893 10.3916 47.8245 11.2482 46.8144C11.362 46.6773 11.423 46.5074 11.4212 46.3328C11.419 46.135 11.3354 45.9458 11.1883 45.8057C11.0412 45.6657 10.8423 45.5858 10.6341 45.5833C10.5103 45.5853 10.3887 45.6145 10.2786 45.6683C10.1685 45.7222 10.073 45.7994 9.99928 45.8939C8.93717 47.2369 8.48569 48.57 8.48569 50.3469C8.49607 52.9555 10.2138 54.9296 12.492 54.9296Z" fill="white"/>
<path d="M9.2189 43.2412C9.41238 43.239 9.59735 43.1607 9.73433 43.0231C9.87132 42.8854 9.94947 42.6993 9.95211 42.5044V38.2615H22.2589C22.4629 38.2588 22.6578 38.176 22.802 38.0307C22.9463 37.8854 23.0285 37.6891 23.0311 37.4837C23.0285 37.2782 22.9463 37.0819 22.802 36.9366C22.6578 36.7913 22.4629 36.7085 22.2589 36.7058H9.95211V32.4646C9.94948 32.2695 9.87138 32.0832 9.73444 31.9453C9.59751 31.8074 9.41254 31.7287 9.2189 31.7261C9.02526 31.7287 8.84029 31.8074 8.70335 31.9453C8.56642 32.0832 8.48832 32.2695 8.48569 32.4646V42.5044C8.48614 42.7 8.56358 42.8874 8.70104 43.0255C8.8385 43.1637 9.02473 43.2412 9.2189 43.2412Z" fill="white"/>
<path d="M28.2806 25.6667C28.4816 25.6616 28.673 25.5816 28.8152 25.4432C28.9575 25.3047 29.0397 25.1184 29.0449 24.9227C29.0446 24.8239 29.0236 24.7261 28.9834 24.6354C28.9432 24.5447 28.8844 24.4628 28.8108 24.3948C27.487 23.0442 26.9173 21.7539 26.9173 20.0798C26.9173 16.9529 29.6009 14.5046 33.0281 14.5046H33.0677C36.5277 14.5046 39.139 16.8925 39.139 20.0597C39.139 21.6734 38.5916 22.9755 37.3763 24.2725C37.2364 24.4159 37.1582 24.606 37.1577 24.8037C37.1602 25.0072 37.2428 25.2021 37.3886 25.348C37.5343 25.4939 37.732 25.5798 37.9409 25.588C38.056 25.5847 38.1692 25.559 38.2739 25.5123C38.3785 25.4657 38.4725 25.3991 38.5503 25.3165L38.5624 25.3014C39.6244 24.0899 40.6056 22.6202 40.6056 20.0798C40.6056 16.0764 37.2765 12.9395 33.0316 12.9395H32.9903C28.6868 12.9395 25.4541 15.9927 25.4541 20.0413C25.4541 22.1477 26.1323 23.7597 27.7315 25.4338C27.8021 25.5068 27.8871 25.565 27.9815 25.6051C28.0759 25.6451 28.1776 25.6661 28.2806 25.6667Z" fill="white"/>
<path d="M39.9962 28.8729C39.994 28.6666 39.912 28.4693 39.7677 28.3233C39.6234 28.1772 39.4283 28.094 39.2241 28.0913H26.2279C26.0235 28.094 25.8282 28.1772 25.6836 28.3232C25.5391 28.4692 25.4567 28.6665 25.4541 28.8729C25.4567 29.0792 25.5392 29.2763 25.6838 29.422C25.8283 29.5678 26.0236 29.6506 26.2279 29.6528H31.3184V33.8797L25.8393 38.1306C25.7283 38.2041 25.636 38.3029 25.5697 38.419C25.5034 38.5351 25.465 38.6653 25.4575 38.7991C25.4613 39.0106 25.5456 39.2124 25.6929 39.3627C25.8401 39.513 26.039 39.6003 26.2482 39.6065C26.4377 39.5983 26.6181 39.5224 26.7573 39.3922L31.5611 35.6504C32.0294 38.1135 33.5651 39.5687 35.7303 39.5687H35.771C36.8113 39.5702 37.8101 39.1569 38.5504 38.4186C39.4854 37.4724 39.9996 36 39.9996 34.2688L39.9962 28.8729ZM38.5318 29.6528V34.2088C38.5318 36.5811 37.4865 37.9987 35.7354 37.9987H35.6963C33.9129 37.9987 32.7608 36.4868 32.7608 34.1488V29.6528H38.5318Z" fill="white"/>
<path d="M39.2622 52.8414C39.4572 52.8389 39.6435 52.7629 39.7813 52.6297C39.919 52.4965 39.9973 52.3166 39.9996 52.1284V43.3864C39.9969 43.1885 39.9142 42.9994 39.7692 42.8595C39.6241 42.7195 39.4281 42.6398 39.223 42.6372H26.229C26.0242 42.6402 25.8286 42.7201 25.6839 42.86C25.5392 43 25.4567 43.1888 25.4541 43.3864V52.2289C25.4563 52.4169 25.5347 52.5966 25.6725 52.7295C25.8103 52.8625 25.9966 52.9381 26.1914 52.9402C26.3859 52.9373 26.5715 52.8613 26.7088 52.7285C26.8461 52.5957 26.9244 52.4165 26.9271 52.2289V44.1373H32.0475V51.259C32.0497 51.4467 32.1279 51.6262 32.2653 51.7591C32.4028 51.892 32.5886 51.9678 32.7832 51.9704C32.9779 51.9678 33.1639 51.892 33.3016 51.7592C33.4393 51.6263 33.5178 51.4469 33.5205 51.259V44.1373H38.5232V52.1284C38.5249 52.317 38.6034 52.4974 38.7416 52.6307C38.8798 52.764 39.0668 52.8397 39.2622 52.8414Z" fill="white"/>
<path d="M39.9402 61.1359L26.6119 55.4614C26.4745 55.3988 26.3237 55.3651 26.1706 55.3628C25.9755 55.3683 25.7906 55.4448 25.6565 55.5755C25.5223 55.7063 25.4496 55.8808 25.4543 56.0608C25.4533 56.2154 25.5059 56.3663 25.6045 56.4914C25.7032 56.6164 25.8426 56.709 26.0024 56.7556L29.5679 58.2469V65.7732L26.0217 67.2662C25.862 67.3213 25.7233 67.4183 25.6225 67.5451C25.5217 67.672 25.4633 67.8233 25.4543 67.9803C25.452 68.1678 25.5303 68.3484 25.6721 68.4826C25.814 68.6168 26.0077 68.6936 26.2108 68.6961C26.3636 68.6963 26.5142 68.6631 26.6504 68.5992L39.9419 62.944C40.3885 62.7517 40.6056 62.4593 40.6056 62.0602V62.0181C40.6056 61.6191 40.3885 61.3298 39.9402 61.1359ZM38.4972 62.0181L31.0616 65.135V58.8852L38.4972 62.0181Z" fill="white"/>
<path d="M39.2305 71.7276H26.2047C26.1058 71.7264 26.0077 71.7455 25.9161 71.7837C25.8245 71.8219 25.7414 71.8785 25.6714 71.9501C25.6015 72.0217 25.5463 72.1069 25.509 72.2007C25.4717 72.2944 25.453 72.3949 25.4542 72.4961C25.4532 72.5972 25.472 72.6975 25.5095 72.7911C25.5469 72.8846 25.6022 72.9696 25.6721 73.041C25.742 73.1124 25.8251 73.1689 25.9165 73.207C26.008 73.2451 26.1059 73.2641 26.2047 73.2629H37.0431L30.2919 78.0144C30.1796 78.0822 30.0865 78.1789 30.0219 78.2949C29.9572 78.4109 29.9233 78.5421 29.9234 78.6756C29.9232 78.8092 29.9569 78.9406 30.0212 79.0568C30.0855 79.173 30.1782 79.2701 30.2902 79.3386L37.0431 84.09H26.2249C26.0213 84.0927 25.8268 84.1768 25.6828 84.3242C25.5388 84.4716 25.4568 84.6709 25.4542 84.8794C25.4572 85.0876 25.5395 85.2863 25.6834 85.4334C25.8273 85.5805 26.0216 85.6643 26.2249 85.6669H39.2305C39.4336 85.6642 39.6277 85.5804 39.7714 85.4333C39.9151 85.2862 39.9969 85.0874 39.9996 84.8794V84.7772C39.9978 84.628 39.9594 84.4816 39.8879 84.3515C39.8165 84.2215 39.7142 84.1119 39.5905 84.0329L31.918 78.6964L39.604 73.3512C39.7227 73.2705 39.8207 73.1616 39.8896 73.0339C39.9584 72.9061 39.9961 72.7632 39.9996 72.6173V72.5169C39.9974 72.3086 39.9157 72.1094 39.772 71.9619C39.6283 71.8144 39.4339 71.7303 39.2305 71.7276Z" fill="white"/>
<path fill-rule="evenodd" clip-rule="evenodd" d="M16.8987 22.8201V26.1473C16.8973 26.6625 16.6809 27.1562 16.2967 27.5204C15.9126 27.8845 15.3921 28.0895 14.849 28.0904C14.306 28.0895 13.7855 27.8845 13.4013 27.5204C13.0172 27.1562 12.8007 26.6625 12.7993 26.1473V22.8201H9.38191C8.82294 22.8183 8.28742 22.6067 7.89233 22.2315C7.49724 21.8563 7.27468 21.348 7.27327 20.8176C7.27515 20.2876 7.49792 19.7797 7.89296 19.4049C8.288 19.0301 8.82324 18.8187 9.38191 18.8169H12.7993V15.4914C12.7998 14.9756 13.0158 14.481 13.4001 14.1161C13.7843 13.7512 14.3054 13.5458 14.849 13.5449C15.3924 13.5458 15.9132 13.751 16.2974 14.1155C16.6816 14.4801 16.8978 14.9742 16.8987 15.4897V18.8152H20.3161C20.8748 18.817 21.4101 19.0284 21.8051 19.4032C22.2001 19.778 22.4229 20.2859 22.4248 20.816C22.4234 21.3463 22.2008 21.8546 21.8057 22.2298C21.4106 22.605 20.8751 22.8166 20.3161 22.8184L16.8987 22.8201Z" fill="#ED1C24"/>
</svg>
