<svg width="24" height="24" viewBox="0 0 24 24" fill="none" xmlns="http://www.w3.org/2000/svg">
<g clip-path="url(#clip0_1019_10285)">
<path d="M23.3192 6.05C23.1945 6.00764 23.0626 5.99035 22.9311 5.99911C22.7997 6.00787 22.6713 6.04252 22.5533 6.10106C22.4353 6.1596 22.33 6.24089 22.2435 6.34024C22.157 6.43959 22.0909 6.55506 22.0492 6.68C21.8441 7.40344 21.5049 8.08189 21.0492 8.68C20.0492 6.2 18.6992 3.89 18.5492 2H22.9992C23.2644 2 23.5188 1.89464 23.7063 1.70711C23.8938 1.51957 23.9992 1.26522 23.9992 1C23.9992 0.734784 23.8938 0.48043 23.7063 0.292893C23.5188 0.105357 23.2644 0 22.9992 0L0.999198 0C0.733981 0 0.479627 0.105357 0.292091 0.292893C0.104555 0.48043 -0.000802273 0.734784 -0.000802273 1C-0.000802273 1.26522 0.104555 1.51957 0.292091 1.70711C0.479627 1.89464 0.733981 2 0.999198 2H5.4492C5.2992 3.89 3.9992 6.2 2.9992 8.67C2.54349 8.07189 2.20426 7.39344 1.9992 6.67C1.95691 6.54004 1.88844 6.42013 1.79801 6.31767C1.70758 6.21521 1.5971 6.13237 1.4734 6.07427C1.34971 6.01617 1.21541 5.98404 1.07881 5.97987C0.942216 5.97569 0.806212 5.99956 0.679198 6.05C0.554253 6.09175 0.438788 6.15777 0.339436 6.24427C0.240083 6.33078 0.158802 6.43606 0.10026 6.55407C0.041719 6.67208 0.00707164 6.8005 -0.00169129 6.93194C-0.0104542 7.06338 0.00683995 7.19526 0.0491977 7.32C0.42677 8.67951 1.21205 9.89059 2.2992 10.79C2.11053 11.5119 2.0098 12.2539 1.9992 13C1.9992 18 6.9992 20 8.9992 20V22H4.9992C4.73398 22 4.47963 22.1054 4.29209 22.2929C4.10456 22.4804 3.9992 22.7348 3.9992 23C3.9992 23.2652 4.10456 23.5196 4.29209 23.7071C4.47963 23.8946 4.73398 24 4.9992 24H18.9992C19.2644 24 19.5188 23.8946 19.7063 23.7071C19.8938 23.5196 19.9992 23.2652 19.9992 23C19.9992 22.7348 19.8938 22.4804 19.7063 22.2929C19.5188 22.1054 19.2644 22 18.9992 22H14.9992V20C16.9992 20 21.9992 18 21.9992 13C21.9886 12.2539 21.8879 11.5119 21.6992 10.79C22.8048 9.89771 23.6081 8.68588 23.9992 7.32C24.0406 7.19203 24.0557 7.05703 24.0437 6.92307C24.0317 6.78912 23.9927 6.65897 23.9293 6.5404C23.8658 6.42184 23.779 6.3173 23.6742 6.23303C23.5694 6.14877 23.4486 6.08652 23.3192 6.05ZM14.9992 18H12.9992V22H10.9992V18H8.9992C7.9992 18 3.9992 16.69 3.9992 13C4.00017 12.5492 4.05047 12.0999 4.1492 11.66C4.58246 11.7577 5.02506 11.808 5.4692 11.81C6.81322 11.7665 8.13671 11.4678 9.3692 10.93C9.61585 10.8319 9.81342 10.6398 9.91844 10.396C10.0235 10.1522 10.0273 9.87665 9.9292 9.63C9.83107 9.38335 9.63898 9.18578 9.39518 9.08076C9.15138 8.97574 8.87585 8.97187 8.6292 9.07C7.4122 9.64806 6.05851 9.87656 4.7192 9.73C5.0292 8.9 5.3992 8.07 5.7192 7.25C6.60117 5.61412 7.19325 3.83789 7.4692 2H16.5292C16.7895 3.8348 17.3646 5.61088 18.2292 7.25C18.5992 8.07 18.9692 8.9 19.2792 9.73C17.9399 9.87656 16.5862 9.64806 15.3692 9.07C15.1225 8.97187 14.847 8.97574 14.6032 9.08076C14.3594 9.18578 14.1673 9.38335 14.0692 9.63C13.9711 9.87665 13.9749 10.1522 14.08 10.396C14.185 10.6398 14.3825 10.8319 14.6292 10.93C15.8617 11.4678 17.1852 11.7665 18.5292 11.81C18.9733 11.808 19.4159 11.7577 19.8492 11.66C19.9479 12.0999 19.9982 12.5492 19.9992 13C19.9992 16.69 15.9992 18 14.9992 18Z" fill="black"/>
</g>
<defs>
<clipPath id="clip0_1019_10285">
<rect width="24" height="24" fill="white"/>
</clipPath>
</defs>
</svg>
