<svg width="21" height="21" viewBox="0 0 21 21" fill="none" xmlns="http://www.w3.org/2000/svg">
<path d="M5.5 19L10.5 9.09998M5.96945 13.3C5 12.5 4.5 11.5757 4.5 10.5V9.50001C4.5 6.79382 6.7938 4.5 9.5 4.5H11.5C14.2062 4.5 16.5 6.7938 16.5 9.5V10.5C16.5 12.8196 14.3196 14.5 12 14.5C10.5464 14.5 9.29479 13.474 9.00971 12.0486L9 12M10.5 20.5C4.97715 20.5 0.5 16.0228 0.5 10.5C0.5 4.97715 4.97715 0.5 10.5 0.5C16.0228 0.5 20.5 4.97715 20.5 10.5C20.5 16.0228 16.0228 20.5 10.5 20.5Z" stroke="#151515"/>
</svg>
