<svg width="225" height="15" viewBox="0 0 225 15" fill="none" xmlns="http://www.w3.org/2000/svg">
<g clip-path="url(#clip0_1259_14568)">
<path d="M204.864 0H204.74C202.774 0 200.912 0.767083 199.505 2.17686C198.118 3.5659 197.332 5.43178 197.332 7.42205C197.332 9.41232 198.098 11.2575 199.505 12.6672C200.891 14.0563 202.754 14.8441 204.74 14.8441H204.864C206.83 14.8441 208.693 14.077 210.1 12.6672C211.486 11.2782 212.273 9.41232 212.273 7.42205C212.273 5.43178 211.507 3.58663 210.1 2.17686C208.713 0.787815 206.851 0 204.864 0V0ZM199.174 5.49397C199.774 3.71102 201.222 2.32198 203.002 1.76222C203.147 1.72075 203.333 1.70002 203.478 1.70002C203.623 1.70002 203.892 1.72075 204.078 1.86588C204.264 2.011 204.368 2.23905 204.368 2.5293V6.42691C204.368 6.42691 204.368 6.46838 204.347 6.46838H204.306L203.871 6.05374C203.871 6.05374 203.871 6.03301 203.871 6.01227V5.80495C203.871 5.74276 203.892 5.70129 203.954 5.65983C203.954 5.65983 203.975 5.61837 203.954 5.59763C203.954 5.5769 203.913 5.55617 203.892 5.55617H201.222C201.202 5.55617 201.181 5.55617 201.16 5.59763C201.16 5.61837 201.16 5.6391 201.16 5.65983C201.222 5.70129 201.243 5.76349 201.243 5.80495V6.1574C201.243 6.1574 201.243 6.1574 201.243 6.17813L200.602 7.15253C200.602 7.17326 200.54 7.17326 200.519 7.15253L199.877 6.17813C199.877 6.17813 199.877 6.17813 199.877 6.1574V5.80495C199.877 5.74276 199.898 5.70129 199.96 5.65983C199.96 5.65983 199.981 5.61837 199.96 5.59763C199.96 5.5769 199.939 5.55617 199.898 5.55617H199.132C199.132 5.55617 199.132 5.55617 199.112 5.55617C199.112 5.53544 199.112 5.49397 199.132 5.49397H199.174ZM199.132 9.16353C198.946 8.60377 198.863 8.00254 198.863 7.40132C198.863 6.80009 198.946 6.19886 199.132 5.6391C199.194 5.68056 199.215 5.74276 199.215 5.78422V8.97695C199.215 9.01841 199.194 9.08061 199.132 9.12207V9.16353ZM204.326 13.2477C204.306 13.2477 204.264 13.2685 204.182 13.2685C203.975 13.2685 203.644 13.2063 203.581 13.1855C203.54 13.1855 203.519 13.1441 203.519 13.1233C203.519 13.1026 203.519 13.0611 203.54 13.0404C203.726 12.8746 203.913 12.605 203.913 12.605C203.913 12.605 203.954 12.5636 203.975 12.5636C203.995 12.5636 204.016 12.5636 204.037 12.605L204.326 13.1233C204.326 13.1441 204.326 13.1855 204.326 13.227V13.2477ZM204.389 8.6245C204.389 10.4489 204.285 10.8221 203.768 11.6928C203.271 12.5221 202.754 12.7087 202.423 12.7087C202.092 12.7087 202.029 12.6258 201.967 12.605C200.643 11.9002 199.67 10.7184 199.174 9.30866C199.174 9.30866 199.174 9.26719 199.153 9.24646C199.153 9.24646 199.153 9.24646 199.174 9.24646H199.939C199.96 9.24646 199.981 9.24646 200.001 9.205C200.001 9.18427 200.001 9.16353 200.001 9.1428C199.939 9.10134 199.919 9.03914 199.919 8.99768V7.50498C199.919 7.50498 199.919 7.46351 199.96 7.46351C199.96 7.46351 200.001 7.46351 200.022 7.46351L200.581 8.23059C200.602 8.27206 200.664 8.27206 200.684 8.23059L201.222 7.46351C201.222 7.46351 201.264 7.44278 201.284 7.46351C201.284 7.46351 201.326 7.48424 201.326 7.50498V8.99768C201.326 9.03914 201.305 9.10134 201.243 9.1428C201.243 9.1428 201.222 9.18427 201.243 9.205C201.243 9.22573 201.264 9.24646 201.305 9.24646H202.071C202.092 9.24646 202.112 9.24646 202.133 9.205C202.133 9.18427 202.133 9.16353 202.133 9.1428C202.071 9.10134 202.05 9.03914 202.05 8.99768V6.26106C202.05 6.24032 202.071 6.21959 202.092 6.21959H203.23C203.25 6.21959 203.271 6.21959 203.271 6.26106V8.99768C203.271 9.03914 203.25 9.10134 203.188 9.1428C203.188 9.1428 203.168 9.18427 203.188 9.205C203.188 9.22573 203.23 9.24646 203.25 9.24646H204.016C204.037 9.24646 204.057 9.24646 204.078 9.205C204.078 9.18427 204.078 9.16353 204.078 9.1428C204.016 9.10134 203.995 9.03914 203.995 8.99768V7.04887C203.995 7.04887 203.995 7.00741 204.016 7.00741H204.057L204.492 7.42205C204.492 7.42205 204.492 7.44278 204.492 7.46351V8.64523L204.389 8.6245ZM205.196 11.9209L204.885 12.5221C204.885 12.5428 204.844 12.5636 204.823 12.5636C204.802 12.5636 204.761 12.5636 204.761 12.5221L204.451 11.9209C204.451 11.9002 204.451 11.8794 204.451 11.8587L204.761 11.2575C204.782 11.216 204.864 11.216 204.906 11.2575L205.216 11.8587C205.216 11.8794 205.216 11.9002 205.216 11.9209H205.196ZM205.237 3.91834C205.237 3.91834 205.237 3.87688 205.258 3.87688H205.299L205.775 4.45738C205.816 4.51957 205.837 4.56104 205.816 4.58177C205.816 4.58177 205.816 4.62323 205.816 4.64396C205.816 4.64396 205.837 4.66469 205.858 4.66469H206.665C206.685 4.66469 206.727 4.66469 206.727 4.62323C206.727 4.6025 206.727 4.56103 206.685 4.56103C206.603 4.51957 206.561 4.45738 206.499 4.39518L205.837 3.58663C205.837 3.58663 205.837 3.54517 205.837 3.52444L206.354 2.88174C206.416 2.79882 206.458 2.73662 206.541 2.69516C206.561 2.69516 206.582 2.65369 206.582 2.63296C206.582 2.61223 206.561 2.5915 206.52 2.5915H205.796C205.796 2.5915 205.754 2.5915 205.754 2.61223C205.754 2.61223 205.754 2.65369 205.754 2.67442C205.754 2.67442 205.754 2.71589 205.754 2.77808L205.299 3.33785C205.299 3.33785 205.258 3.35858 205.258 3.33785C205.258 3.33785 205.237 3.31712 205.237 3.29638V2.48784C205.237 2.19759 205.34 1.96954 205.527 1.82441C205.816 1.59636 206.292 1.63783 206.603 1.72075C207.989 2.15613 209.148 3.06833 209.914 4.31225V4.35371C209.479 5.16226 209.231 6.03301 209.169 6.98668C209.169 7.00741 209.148 7.02814 209.127 7.02814H208.382C208.362 7.02814 208.341 7.00741 208.341 6.98668V5.76349C208.341 5.70129 208.362 5.65983 208.424 5.61837C208.424 5.61837 208.444 5.5769 208.424 5.55617C208.424 5.53544 208.382 5.51471 208.362 5.51471H207.596C207.575 5.51471 207.555 5.51471 207.534 5.55617C207.534 5.5769 207.534 5.59763 207.534 5.61837C207.596 5.65983 207.617 5.72203 207.617 5.76349V6.98668C207.617 7.00741 207.596 7.02814 207.575 7.02814H206.499C206.479 7.02814 206.458 7.00741 206.458 6.98668V5.76349C206.458 5.70129 206.479 5.65983 206.541 5.61837C206.541 5.61837 206.561 5.5769 206.541 5.55617C206.541 5.53544 206.499 5.51471 206.479 5.51471H205.713C205.692 5.51471 205.671 5.51471 205.651 5.55617C205.651 5.5769 205.651 5.59763 205.651 5.61837C205.713 5.65983 205.734 5.72203 205.734 5.76349V7.7123C205.734 7.7123 205.734 7.75376 205.713 7.75376H205.672L205.175 7.29766C205.175 7.29766 205.175 7.27692 205.175 7.25619V3.93908L205.237 3.91834ZM206.044 13.1855C206.044 13.1855 205.651 13.2685 205.423 13.2685C205.196 13.2685 205.299 13.2685 205.278 13.2477C205.258 13.227 205.237 13.1855 205.278 13.1441L205.568 12.6258C205.568 12.605 205.609 12.5843 205.63 12.5843C205.651 12.5843 205.692 12.5843 205.692 12.6258C205.692 12.6258 205.878 12.8953 206.065 13.0611C206.085 13.0611 206.085 13.1026 206.085 13.1441C206.085 13.1648 206.065 13.1855 206.023 13.2063L206.044 13.1855ZM209.872 10.5111C209.334 11.3819 208.548 12.1075 207.658 12.605C207.534 12.6672 207.389 12.7087 207.265 12.7087C206.851 12.7087 206.21 12.0245 205.941 11.6721C205.402 10.8843 205.237 10.4075 205.237 8.64523V8.35499C205.237 8.35499 205.237 8.31352 205.258 8.31352C205.258 8.31352 205.278 8.31352 205.299 8.31352L205.796 8.76963C205.796 8.76963 205.796 8.79036 205.796 8.81109V9.01841C205.796 9.05987 205.775 9.12207 205.713 9.16353C205.713 9.16353 205.692 9.205 205.713 9.22573C205.713 9.24646 205.734 9.26719 205.775 9.26719H206.541C206.561 9.26719 206.582 9.26719 206.603 9.22573C206.603 9.205 206.603 9.18427 206.603 9.16353C206.541 9.12207 206.52 9.05987 206.52 9.01841V7.79522C206.52 7.77449 206.541 7.75376 206.561 7.75376H207.637C207.658 7.75376 207.679 7.75376 207.679 7.79522V9.01841C207.679 9.05987 207.658 9.12207 207.596 9.16353C207.596 9.16353 207.575 9.205 207.596 9.22573C207.596 9.24646 207.617 9.26719 207.658 9.26719H208.424C208.444 9.26719 208.465 9.26719 208.486 9.22573C208.486 9.205 208.486 9.18427 208.486 9.16353C208.424 9.12207 208.403 9.05987 208.403 9.01841V7.79522C208.403 7.77449 208.424 7.75376 208.444 7.75376H209.169C209.189 7.75376 209.21 7.75376 209.21 7.79522C209.251 8.74889 209.5 9.6611 209.934 10.4696V10.5111H209.872ZM210.348 9.55744C210.348 9.5989 210.286 9.5989 210.265 9.55744C210.038 8.99768 209.914 8.39645 209.872 7.77449C209.872 7.77449 209.872 7.75376 209.872 7.73303C209.872 7.73303 209.893 7.73303 209.914 7.73303H210.7C210.7 7.73303 210.721 7.73303 210.741 7.73303C210.741 7.73303 210.741 7.75376 210.741 7.77449C210.7 8.37572 210.576 8.97695 210.348 9.55744ZM210.348 5.26592C210.348 5.26592 210.39 5.26592 210.39 5.28665C210.597 5.82569 210.721 6.40618 210.762 6.98668C210.762 6.98668 210.762 7.00741 210.762 7.02814C210.762 7.02814 210.741 7.02814 210.721 7.02814H209.955C209.955 7.02814 209.934 7.02814 209.914 7.02814C209.914 7.02814 209.914 7.00741 209.914 6.98668C209.955 6.38545 210.1 5.82569 210.328 5.26592C210.328 5.26592 210.348 5.24519 210.369 5.24519L210.348 5.26592Z" fill="black"/>
<path d="M177.675 6.26083C174.922 5.59741 174.26 5.12057 174.26 4.00105V3.95958C174.26 3.02665 175.109 2.25956 176.578 2.25956C178.047 2.25956 179.165 2.77786 180.448 3.73153L181.793 1.82419C180.344 0.663199 178.689 0.0205078 176.599 0.0205078C174.509 0.0205078 171.715 1.72053 171.715 4.1669V4.20837C171.715 6.84133 173.433 7.75354 176.474 8.47916C179.123 9.10112 179.703 9.64015 179.703 10.6767V10.7182C179.703 11.7755 178.73 12.5219 177.178 12.5219C175.626 12.5219 174.033 11.8377 172.667 10.656L171.156 12.4597C172.874 13.9939 174.943 14.7402 177.116 14.7402C179.289 14.7402 182.227 13.1439 182.227 10.4694V10.428C182.227 8.06452 180.675 6.96572 177.654 6.2401L177.675 6.26083Z" fill="black"/>
<path d="M219.578 0.249248H213.949V14.5543H216.453V9.95181H219.288C222.434 9.95181 225 8.27252 225 5.05907V5.0176C225 2.13586 222.909 0.228516 219.578 0.228516V0.249248ZM222.454 5.14199C222.454 6.6347 221.275 7.69203 219.371 7.69203H216.453V2.52977H219.371C221.254 2.52977 222.454 3.40051 222.454 5.0798V5.12126V5.14199Z" fill="black"/>
<path d="M193.133 6.1369H186.18V0.249023H183.676V14.5541H186.18V8.6662H193.133V14.5541H195.657V0.249023H193.133V6.1369Z" fill="black"/>
<path d="M88.1342 7.00787L83.7886 0.228516H81.1191V14.5543H83.5817V4.33345L88.0515 11.0299H88.1342L92.6454 4.29198V14.5543H95.17V0.228516H92.5005L88.1342 7.00787Z" fill="black"/>
<path d="M107.378 8.47984C107.378 11.1128 106.013 12.4397 103.778 12.4397C101.543 12.4397 100.156 11.0299 100.156 8.37618V0.228516H97.6523V8.47984C97.6523 12.6262 100.011 14.7824 103.736 14.7824C107.461 14.7824 109.882 12.6262 109.882 8.35545V0.228516H107.378V8.47984Z" fill="black"/>
<path d="M117.829 6.24033C115.077 5.5769 114.415 5.10007 114.415 3.98054V3.93908C114.415 3.00614 115.263 2.23905 116.732 2.23905C118.201 2.23905 119.319 2.75735 120.602 3.71102L121.947 1.80368C120.498 0.642691 118.843 0 116.753 0C114.663 0 111.869 1.70002 111.869 4.1464V4.18786C111.869 6.82082 113.587 7.73303 116.629 8.45865C119.278 9.08061 119.857 9.61964 119.857 10.6562V10.6977C119.857 11.755 118.884 12.5014 117.332 12.5014C115.78 12.5014 114.187 11.8172 112.821 10.6355L111.311 12.4392C113.028 13.9734 115.097 14.7197 117.27 14.7197C119.443 14.7197 122.382 13.1233 122.382 10.4489V10.4075C122.382 8.04401 120.83 6.94521 117.808 6.21959L117.829 6.24033Z" fill="black"/>
<path d="M124.223 14.5543H134.818V12.2945H126.727V8.47984H133.99V6.19933H126.727V2.4883H134.818V0.228516H124.223V14.5543Z" fill="black"/>
<path d="M146.613 8.47984C146.613 11.1128 145.247 12.4397 143.012 12.4397C140.777 12.4397 139.391 11.0299 139.391 8.37618V0.228516H136.887V8.47984C136.887 12.6262 139.246 14.7824 142.971 14.7824C146.695 14.7824 149.117 12.6262 149.117 8.35545V0.228516H146.613V8.47984Z" fill="black"/>
<path d="M158.636 7.00787L154.291 0.228516H151.621V14.5543H154.084V4.33345L158.553 11.0299H158.636L163.147 4.29198V14.5543H165.672V0.228516H162.982L158.636 7.00787Z" fill="black"/>
<path d="M9.06374 7.13181C10.1191 6.57205 11.1124 5.65984 11.1124 3.93909V3.89763C11.1124 2.96469 10.7813 2.15614 10.1605 1.53418C9.35344 0.725635 8.04976 0.269531 6.41497 0.269531H0V14.5746H6.62191C9.8087 14.5746 11.9194 13.2063 11.9194 10.6563V10.6148C11.9194 8.66598 10.7606 7.71231 9.08443 7.13181H9.06374ZM2.46252 2.48785H6.08388C7.69797 2.48785 8.58779 3.19274 8.58779 4.31227V4.35373C8.58779 5.65984 7.51173 6.30254 5.89764 6.30254H2.46252V2.48785ZM9.39483 10.3867C9.39483 11.6721 8.33947 12.3563 6.6426 12.3563H2.46252V8.43793H6.45636C8.44293 8.43793 9.39483 9.16355 9.39483 10.366V10.4075V10.3867Z" fill="black"/>
<path d="M14.0508 14.5746H24.6872V12.3355H16.5547V8.50012H23.8802V6.24034H16.5547V2.50858H24.7079V0.269531H14.0508V14.5746Z" fill="black"/>
<path d="M36.7926 10.1587L29.136 0.269531H26.8184V14.5746H29.2809V4.39519L37.1651 14.5746H39.2758V0.269531H36.7926V10.1587Z" fill="black"/>
<path d="M69.8399 0.269531H66.7152L59.9484 7.46353V0.269531H57.4238V14.5746H59.9484V10.4282L62.1626 8.12695L67.0463 14.5746H70.1089L63.8802 6.42693L69.8399 0.269531Z" fill="black"/>
<path d="M74 0.269531H71.4961V14.5953H74V0.269531Z" fill="black"/>
<path d="M47.14 0.269531L40.8906 14.5953H43.4566L44.9258 11.1331H51.6926L53.1411 14.5953H55.7899L49.5612 0.269531H47.14ZM45.8571 8.89404L48.2989 3.17201L50.7614 8.89404H45.8364H45.8571Z" fill="black"/>
</g>
<defs>
<clipPath id="clip0_1259_14568">
<rect width="225" height="14.8026" fill="white"/>
</clipPath>
</defs>
</svg>
