<svg width="21" height="19" viewBox="0 0 21 19" fill="none" xmlns="http://www.w3.org/2000/svg">
<path d="M20.4691 1L20.968 0.966923C20.9547 0.766352 20.8226 0.593244 20.6327 0.5275C20.4427 0.461755 20.2319 0.516157 20.0974 0.665597L20.4691 1ZM19.5428 5.22701C19.5428 4.95086 19.3189 4.72701 19.0428 4.72701C18.7666 4.72701 18.5428 4.95086 18.5428 5.22701H19.5428ZM10.5 6.5V7H11V6.5H10.5ZM1.92637 1L2.39462 0.824676C2.32485 0.63834 2.15124 0.511104 1.95255 0.500686C1.75385 0.490268 1.56789 0.598651 1.47902 0.776669L1.92637 1ZM7.5 14L7.85383 14.3533C7.97619 14.2307 8.02642 14.0536 7.98661 13.885C7.94679 13.7165 7.8226 13.5806 7.65833 13.5257L7.5 14ZM0.5 16.7143V16.2143C0.279732 16.2143 0.0854109 16.3584 0.0215057 16.5692C-0.0423996 16.78 0.0391667 17.0078 0.222353 17.1301L0.5 16.7143ZM17.9515 2.39054L17.5806 2.72589L17.7608 2.92513L18.0264 2.88491L17.9515 2.39054ZM19.9702 1.03308C20.0446 2.15499 19.9783 2.86395 19.7838 3.41243C19.5929 3.95047 19.2609 4.38419 18.6968 4.9247L19.3887 5.64673C20.0033 5.0578 20.4605 4.4957 20.7262 3.74676C20.9882 3.00827 21.0458 2.13909 20.968 0.966923L19.9702 1.03308ZM19.5428 6.26785V5.28571H18.5428V6.26785H19.5428ZM19.5428 5.28571V5.22701H18.5428V5.28571H19.5428ZM10 5.5V6.5H11V5.5H10ZM14.8223 0.5C12.125 0.5 10 2.85065 10 5.5H11C11 3.35063 12.7282 1.5 14.8223 1.5V0.5ZM18.5428 6.26785C18.5428 12.5599 13.2624 18 7 18V19C13.8342 19 19.5428 13.0925 19.5428 6.26785H18.5428ZM1.45811 1.17532C2.22305 3.2183 5.10161 7 10.5 7V6C5.62855 6 3.05605 2.59122 2.39462 0.824676L1.45811 1.17532ZM1.47902 0.776669C0.00554863 3.72816 -0.242404 6.59715 0.775073 9.03207C1.79256 11.467 4.03467 13.3702 7.34167 14.4743L7.65833 13.5257C4.54668 12.4869 2.57561 10.7473 1.69776 8.64651C0.819895 6.54571 0.994452 3.98613 2.37372 1.22333L1.47902 0.776669ZM7.14617 13.6467C6.26646 14.5278 3.76165 16.2143 0.5 16.2143V17.2143C4.08491 17.2143 6.83174 15.377 7.85383 14.3533L7.14617 13.6467ZM18.3224 2.0552C17.4594 1.10084 16.2107 0.5 14.8223 0.5V1.5C15.916 1.5 16.8991 1.97214 17.5806 2.72589L18.3224 2.0552ZM18.0264 2.88491C19.0619 2.72808 20.0775 2.18292 20.8409 1.3344L20.0974 0.665597C19.4829 1.34872 18.6743 1.77537 17.8766 1.89618L18.0264 2.88491ZM0.222353 17.1301C2.47016 18.631 4.63313 19 7 19V18C4.75713 18 2.80895 17.6548 0.777647 16.2985L0.222353 17.1301Z" fill="#151515"/>
</svg>
