<svg width="15" height="15" viewBox="0 0 15 15" fill="none" xmlns="http://www.w3.org/2000/svg">
<path d="M2.5 13.75C2.5 12.4239 3.02678 11.1521 3.96447 10.2145C4.90215 9.27678 6.17392 8.75 7.5 8.75C8.82608 8.75 10.0979 9.27678 11.0355 10.2145C11.9732 11.1521 12.5 12.4239 12.5 13.75H11.25C11.25 12.7554 10.8549 11.8016 10.1517 11.0983C9.44839 10.3951 8.49456 10 7.5 10C6.50544 10 5.55161 10.3951 4.84835 11.0983C4.14509 11.8016 3.75 12.7554 3.75 13.75H2.5ZM7.5 8.125C5.42812 8.125 3.75 6.44688 3.75 4.375C3.75 2.30312 5.42812 0.625 7.5 0.625C9.57188 0.625 11.25 2.30312 11.25 4.375C11.25 6.44688 9.57188 8.125 7.5 8.125ZM7.5 6.875C8.88125 6.875 10 5.75625 10 4.375C10 2.99375 8.88125 1.875 7.5 1.875C6.11875 1.875 5 2.99375 5 4.375C5 5.75625 6.11875 6.875 7.5 6.875Z" fill="white"/>
</svg>
