<svg width="21" height="19" viewBox="0 0 21 19" fill="none" xmlns="http://www.w3.org/2000/svg">
<path d="M2.20091 16.8402L2.10285 17.3305H2.10285L2.20091 16.8402ZM18.7991 16.8402L18.8972 17.3305L18.7991 16.8402ZM18.913 2.30278L19.0178 1.81388L18.913 2.30278ZM2.08696 2.30278L2.19172 2.79168H2.19172L2.08696 2.30278ZM8.5 6.49999L8.75725 6.07124C8.60278 5.97856 8.4104 5.97613 8.25365 6.06489C8.0969 6.15364 8 6.31985 8 6.49999H8.5ZM8.5 12.5H8C8 12.6801 8.0969 12.8463 8.25365 12.9351C8.41041 13.0238 8.60278 13.0214 8.75725 12.9287L8.5 12.5ZM13.5 9.49998L13.7572 9.92873C13.9079 9.83837 14 9.67562 14 9.49998C14 9.32435 13.9079 9.1616 13.7572 9.07124L13.5 9.49998ZM0 4.26582V14.7654H1V4.26582H0ZM21 14.7654V4.26582H20V14.7654H21ZM2.10285 17.3305C7.64606 18.4391 13.3539 18.4391 18.8972 17.3305L18.701 16.3499C13.2873 17.4326 7.71271 17.4326 2.29897 16.3499L2.10285 17.3305ZM19.0178 1.81388C13.403 0.610706 7.597 0.610706 1.98219 1.81388L2.19172 2.79168C7.66841 1.6181 13.3316 1.6181 18.8083 2.79168L19.0178 1.81388ZM21 4.26582C21 3.08339 20.174 2.06163 19.0178 1.81388L18.8083 2.79168C19.5034 2.94063 20 3.55493 20 4.26582H21ZM20 14.7654C20 15.5356 19.4563 16.1988 18.701 16.3499L18.8972 17.3305C20.1199 17.0859 21 16.0123 21 14.7654H20ZM0 14.7654C0 16.0123 0.880133 17.0859 2.10285 17.3305L2.29897 16.3499C1.54367 16.1988 1 15.5356 1 14.7654H0ZM1 4.26582C1 3.55493 1.49661 2.94063 2.19172 2.79168L1.98219 1.81388C0.826006 2.06163 0 3.08339 0 4.26582H1ZM8 6.49999V12.5H9V6.49999H8ZM8.75725 12.9287L13.7572 9.92873L13.2428 9.07124L8.24275 12.0712L8.75725 12.9287ZM13.7572 9.07124L8.75725 6.07124L8.24275 6.92873L13.2428 9.92873L13.7572 9.07124Z" fill="#151515"/>
</svg>
