<svg width="70" height="70" viewBox="0 0 70 70" fill="none" xmlns="http://www.w3.org/2000/svg">
<path d="M37.9165 24.7917H26.2498C20.6119 24.7917 16.0415 20.2212 16.0415 14.5833C16.0415 8.94542 20.6119 4.375 26.2498 4.375H37.9165V24.7917Z" fill="#E64A19"/>
<path d="M36.4582 45.2084H26.2498C20.6119 45.2084 16.0415 40.638 16.0415 35.0001C16.0415 29.3622 20.6119 24.7917 26.2498 24.7917H36.4582V45.2084Z" fill="#7C4DFF"/>
<path d="M26.2498 65.6249C20.6119 65.6249 16.0415 61.0545 16.0415 55.4166C16.0415 49.7787 20.6119 45.2083 26.2498 45.2083H36.4582V55.4166C36.4582 61.0545 31.8878 65.6249 26.2498 65.6249Z" fill="#66BB6A"/>
<path d="M46.6668 24.7917H36.4585V4.375H46.6668C52.3047 4.375 56.8752 8.94542 56.8752 14.5833C56.8752 20.2212 52.3047 24.7917 46.6668 24.7917Z" fill="#FF7043"/>
<path d="M46.6668 45.2084C52.3047 45.2084 56.8752 40.638 56.8752 35.0001C56.8752 29.3622 52.3047 24.7917 46.6668 24.7917C41.0289 24.7917 36.4585 29.3622 36.4585 35.0001C36.4585 40.638 41.0289 45.2084 46.6668 45.2084Z" fill="#29B6F6"/>
</svg>
